G75*
%MOIN*%
%OFA0B0*%
%FSLAX24Y24*%
%IPPOS*%
%LPD*%
%AMOC8*
5,1,8,0,0,1.08239X$1,22.5*
%
%ADD10C,0.1470*%
%ADD11C,0.1270*%
%ADD12R,0.0380X0.2340*%
%ADD13R,0.2340X0.0380*%
%ADD14R,0.0390X0.2340*%
%ADD15C,0.0064*%
%ADD16OC8,0.0620*%
%ADD17C,0.2020*%
%ADD18C,0.0680*%
%ADD19C,0.0063*%
%ADD20C,0.0720*%
%ADD21C,0.0067*%
%ADD22C,0.0064*%
%ADD23C,0.1020*%
%ADD24OC8,0.1020*%
%ADD25C,0.0580*%
%ADD26C,0.0063*%
%ADD27C,0.2420*%
D10*
X002700Y002287D03*
X002700Y027287D03*
D11*
X020500Y027287D03*
X020500Y002287D03*
D12*
G36*
X019109Y010285D02*
X019378Y010016D01*
X017725Y008363D01*
X017456Y008632D01*
X019109Y010285D01*
G37*
D13*
G36*
X017725Y012619D02*
X019378Y010966D01*
X019109Y010697D01*
X017456Y012350D01*
X017725Y012619D01*
G37*
G36*
X015391Y010285D02*
X017044Y008632D01*
X016775Y008363D01*
X015122Y010016D01*
X015391Y010285D01*
G37*
D14*
G36*
X016769Y012626D02*
X017045Y012350D01*
X015391Y010696D01*
X015115Y010972D01*
X016769Y012626D01*
G37*
D15*
X018948Y008718D02*
X018948Y008354D01*
X018572Y008354D01*
X018572Y008718D01*
X018948Y008718D01*
X018948Y008417D02*
X018572Y008417D01*
X018572Y008480D02*
X018948Y008480D01*
X018948Y008543D02*
X018572Y008543D01*
X018572Y008606D02*
X018948Y008606D01*
X018948Y008669D02*
X018572Y008669D01*
X018948Y008079D02*
X018948Y007715D01*
X018572Y007715D01*
X018572Y008079D01*
X018948Y008079D01*
X018948Y007778D02*
X018572Y007778D01*
X018572Y007841D02*
X018948Y007841D01*
X018948Y007904D02*
X018572Y007904D01*
X018572Y007967D02*
X018948Y007967D01*
X018948Y008030D02*
X018572Y008030D01*
X018291Y007629D02*
X017927Y007629D01*
X017927Y008005D01*
X018291Y008005D01*
X018291Y007629D01*
X018291Y007692D02*
X017927Y007692D01*
X017927Y007755D02*
X018291Y007755D01*
X018291Y007818D02*
X017927Y007818D01*
X017927Y007881D02*
X018291Y007881D01*
X018291Y007944D02*
X017927Y007944D01*
X017653Y007629D02*
X017289Y007629D01*
X017289Y008005D01*
X017653Y008005D01*
X017653Y007629D01*
X017653Y007692D02*
X017289Y007692D01*
X017289Y007755D02*
X017653Y007755D01*
X017653Y007818D02*
X017289Y007818D01*
X017289Y007881D02*
X017653Y007881D01*
X017653Y007944D02*
X017289Y007944D01*
X008412Y004288D02*
X008412Y003924D01*
X008412Y004288D02*
X008788Y004288D01*
X008788Y003924D01*
X008412Y003924D01*
X008412Y003987D02*
X008788Y003987D01*
X008788Y004050D02*
X008412Y004050D01*
X008412Y004113D02*
X008788Y004113D01*
X008788Y004176D02*
X008412Y004176D01*
X008412Y004239D02*
X008788Y004239D01*
X008412Y003649D02*
X008412Y003285D01*
X008412Y003649D02*
X008788Y003649D01*
X008788Y003285D01*
X008412Y003285D01*
X008412Y003348D02*
X008788Y003348D01*
X008788Y003411D02*
X008412Y003411D01*
X008412Y003474D02*
X008788Y003474D01*
X008788Y003537D02*
X008412Y003537D01*
X008412Y003600D02*
X008788Y003600D01*
D16*
X006660Y004907D03*
X006660Y005997D03*
X006660Y007077D03*
X006660Y008167D03*
X006660Y009257D03*
X006660Y010337D03*
X006660Y011427D03*
X006660Y012517D03*
X006660Y013597D03*
X006660Y014687D03*
X006660Y015777D03*
X006660Y016857D03*
X006660Y017947D03*
X006660Y019037D03*
X006660Y020127D03*
X006660Y021207D03*
X006660Y022297D03*
X006660Y023387D03*
X006660Y024467D03*
X005540Y023927D03*
X005540Y022837D03*
X005540Y021757D03*
X005540Y020667D03*
X005540Y019577D03*
X005540Y018497D03*
X005540Y017407D03*
X005540Y016317D03*
X005540Y015227D03*
X005540Y014147D03*
X005540Y013057D03*
X005540Y011967D03*
X005540Y010887D03*
X005540Y009797D03*
X005540Y008707D03*
X005540Y007627D03*
X005540Y006537D03*
X005540Y005447D03*
D17*
X006100Y002187D03*
X006100Y027187D03*
D18*
X009350Y027137D03*
X009350Y026137D03*
X009350Y024737D03*
X009350Y023737D03*
X009350Y021987D03*
X009350Y020987D03*
X009350Y019487D03*
X009350Y018487D03*
X009350Y015887D03*
X009350Y014887D03*
X009350Y013887D03*
X009350Y012887D03*
X009350Y011387D03*
X009350Y010387D03*
X009350Y009387D03*
X009350Y008387D03*
X012350Y008387D03*
X012350Y009387D03*
X012350Y010387D03*
X012350Y011387D03*
X012350Y012887D03*
X012350Y013887D03*
X012350Y014887D03*
X012350Y015887D03*
X012350Y018487D03*
X012350Y019487D03*
X012350Y020987D03*
X012350Y021987D03*
X012350Y023737D03*
X012350Y024737D03*
X012350Y026137D03*
X012350Y027137D03*
D19*
X008539Y023575D02*
X008539Y023267D01*
X008161Y023267D01*
X008161Y023575D01*
X008539Y023575D01*
X008539Y023329D02*
X008161Y023329D01*
X008161Y023391D02*
X008539Y023391D01*
X008539Y023453D02*
X008161Y023453D01*
X008161Y023515D02*
X008539Y023515D01*
X008539Y022906D02*
X008539Y022598D01*
X008161Y022598D01*
X008161Y022906D01*
X008539Y022906D01*
X008539Y022660D02*
X008161Y022660D01*
X008161Y022722D02*
X008539Y022722D01*
X008539Y022784D02*
X008161Y022784D01*
X008161Y022846D02*
X008539Y022846D01*
X009861Y017676D02*
X010169Y017676D01*
X010169Y017298D01*
X009861Y017298D01*
X009861Y017676D01*
X009861Y017360D02*
X010169Y017360D01*
X010169Y017422D02*
X009861Y017422D01*
X009861Y017484D02*
X010169Y017484D01*
X010169Y017546D02*
X009861Y017546D01*
X009861Y017608D02*
X010169Y017608D01*
X010169Y017670D02*
X009861Y017670D01*
X010531Y017676D02*
X010839Y017676D01*
X010839Y017298D01*
X010531Y017298D01*
X010531Y017676D01*
X010531Y017360D02*
X010839Y017360D01*
X010839Y017422D02*
X010531Y017422D01*
X010531Y017484D02*
X010839Y017484D01*
X010839Y017546D02*
X010531Y017546D01*
X010531Y017608D02*
X010839Y017608D01*
X010839Y017670D02*
X010531Y017670D01*
X011261Y017676D02*
X011569Y017676D01*
X011569Y017298D01*
X011261Y017298D01*
X011261Y017676D01*
X011261Y017360D02*
X011569Y017360D01*
X011569Y017422D02*
X011261Y017422D01*
X011261Y017484D02*
X011569Y017484D01*
X011569Y017546D02*
X011261Y017546D01*
X011261Y017608D02*
X011569Y017608D01*
X011569Y017670D02*
X011261Y017670D01*
X011931Y017676D02*
X012239Y017676D01*
X012239Y017298D01*
X011931Y017298D01*
X011931Y017676D01*
X011931Y017360D02*
X012239Y017360D01*
X012239Y017422D02*
X011931Y017422D01*
X011931Y017484D02*
X012239Y017484D01*
X012239Y017546D02*
X011931Y017546D01*
X011931Y017608D02*
X012239Y017608D01*
X012239Y017670D02*
X011931Y017670D01*
X013489Y017598D02*
X013489Y017906D01*
X013489Y017598D02*
X013111Y017598D01*
X013111Y017906D01*
X013489Y017906D01*
X013489Y017660D02*
X013111Y017660D01*
X013111Y017722D02*
X013489Y017722D01*
X013489Y017784D02*
X013111Y017784D01*
X013111Y017846D02*
X013489Y017846D01*
X013489Y018267D02*
X013489Y018575D01*
X013489Y018267D02*
X013111Y018267D01*
X013111Y018575D01*
X013489Y018575D01*
X013489Y018329D02*
X013111Y018329D01*
X013111Y018391D02*
X013489Y018391D01*
X013489Y018453D02*
X013111Y018453D01*
X013111Y018515D02*
X013489Y018515D01*
X012991Y015775D02*
X012991Y015467D01*
X012991Y015775D02*
X013369Y015775D01*
X013369Y015467D01*
X012991Y015467D01*
X012991Y015529D02*
X013369Y015529D01*
X013369Y015591D02*
X012991Y015591D01*
X012991Y015653D02*
X013369Y015653D01*
X013369Y015715D02*
X012991Y015715D01*
X012991Y015106D02*
X012991Y014798D01*
X012991Y015106D02*
X013369Y015106D01*
X013369Y014798D01*
X012991Y014798D01*
X012991Y014860D02*
X013369Y014860D01*
X013369Y014922D02*
X012991Y014922D01*
X012991Y014984D02*
X013369Y014984D01*
X013369Y015046D02*
X012991Y015046D01*
X013389Y013725D02*
X013389Y013417D01*
X013011Y013417D01*
X013011Y013725D01*
X013389Y013725D01*
X013389Y013479D02*
X013011Y013479D01*
X013011Y013541D02*
X013389Y013541D01*
X013389Y013603D02*
X013011Y013603D01*
X013011Y013665D02*
X013389Y013665D01*
X013389Y013056D02*
X013389Y012748D01*
X013011Y012748D01*
X013011Y013056D01*
X013389Y013056D01*
X013389Y012810D02*
X013011Y012810D01*
X013011Y012872D02*
X013389Y012872D01*
X013389Y012934D02*
X013011Y012934D01*
X013011Y012996D02*
X013389Y012996D01*
X012961Y011275D02*
X012961Y010967D01*
X012961Y011275D02*
X013339Y011275D01*
X013339Y010967D01*
X012961Y010967D01*
X012961Y011029D02*
X013339Y011029D01*
X013339Y011091D02*
X012961Y011091D01*
X012961Y011153D02*
X013339Y011153D01*
X013339Y011215D02*
X012961Y011215D01*
X012961Y010606D02*
X012961Y010298D01*
X012961Y010606D02*
X013339Y010606D01*
X013339Y010298D01*
X012961Y010298D01*
X012961Y010360D02*
X013339Y010360D01*
X013339Y010422D02*
X012961Y010422D01*
X012961Y010484D02*
X013339Y010484D01*
X013339Y010546D02*
X012961Y010546D01*
X019321Y010624D02*
X019539Y010842D01*
X019805Y010576D01*
X019587Y010358D01*
X019321Y010624D01*
X019525Y010420D02*
X019649Y010420D01*
X019711Y010482D02*
X019463Y010482D01*
X019401Y010544D02*
X019773Y010544D01*
X019775Y010606D02*
X019339Y010606D01*
X019365Y010668D02*
X019713Y010668D01*
X019651Y010730D02*
X019427Y010730D01*
X019489Y010792D02*
X019589Y010792D01*
X019795Y011097D02*
X020013Y011315D01*
X020279Y011049D01*
X020061Y010831D01*
X019795Y011097D01*
X019999Y010893D02*
X020123Y010893D01*
X020185Y010955D02*
X019937Y010955D01*
X019875Y011017D02*
X020247Y011017D01*
X020249Y011079D02*
X019813Y011079D01*
X019839Y011141D02*
X020187Y011141D01*
X020125Y011203D02*
X019901Y011203D01*
X019963Y011265D02*
X020063Y011265D01*
D20*
X018200Y013487D03*
X018200Y014487D03*
X018200Y015487D03*
X018200Y016487D03*
X018200Y017487D03*
X018200Y018487D03*
X018200Y019487D03*
X018200Y020487D03*
X018200Y021487D03*
X018200Y022487D03*
X018200Y023487D03*
X018200Y024487D03*
X018200Y025487D03*
X017200Y025487D03*
X017250Y026587D03*
X016250Y026587D03*
X015250Y026587D03*
X014400Y027887D03*
X013400Y027887D03*
X017200Y024487D03*
X017200Y023487D03*
X017200Y022487D03*
X017200Y021487D03*
X017200Y020487D03*
X017200Y019487D03*
X017200Y018487D03*
X017200Y017487D03*
X017200Y016487D03*
X017200Y015487D03*
X017200Y014487D03*
X017200Y013487D03*
X013600Y021237D03*
X013600Y022237D03*
X002100Y021887D03*
X002100Y022887D03*
X002100Y023887D03*
X002100Y024887D03*
X002100Y020387D03*
X002100Y019387D03*
X002100Y018387D03*
X002100Y016887D03*
X002100Y015887D03*
X002100Y014887D03*
X002100Y013887D03*
X002100Y012887D03*
X002100Y011887D03*
X002100Y010887D03*
X002100Y009887D03*
X002100Y008887D03*
X002100Y007887D03*
X002100Y006637D03*
X002100Y005637D03*
X002100Y004637D03*
X009100Y001487D03*
X010100Y001487D03*
X011100Y001487D03*
X012100Y001487D03*
X013100Y001487D03*
X014100Y001487D03*
X015100Y001487D03*
X016100Y001487D03*
X017100Y001487D03*
X018100Y001487D03*
X009400Y004837D03*
X009400Y005837D03*
X009400Y006837D03*
D21*
X012995Y011758D02*
X013105Y011758D01*
X013105Y011604D01*
X012995Y011604D01*
X012995Y011758D01*
X012995Y011670D02*
X013105Y011670D01*
X013105Y011736D02*
X012995Y011736D01*
X012908Y012270D02*
X012798Y012270D01*
X012908Y012270D02*
X012908Y012116D01*
X012798Y012116D01*
X012798Y012270D01*
X012798Y012182D02*
X012908Y012182D01*
X012908Y012248D02*
X012798Y012248D01*
X013192Y012270D02*
X013302Y012270D01*
X013302Y012116D01*
X013192Y012116D01*
X013192Y012270D01*
X013192Y012182D02*
X013302Y012182D01*
X013302Y012248D02*
X013192Y012248D01*
X013105Y016458D02*
X012995Y016458D01*
X013105Y016458D02*
X013105Y016304D01*
X012995Y016304D01*
X012995Y016458D01*
X012995Y016370D02*
X013105Y016370D01*
X013105Y016436D02*
X012995Y016436D01*
X012908Y016970D02*
X012798Y016970D01*
X012908Y016970D02*
X012908Y016816D01*
X012798Y016816D01*
X012798Y016970D01*
X012798Y016882D02*
X012908Y016882D01*
X012908Y016948D02*
X012798Y016948D01*
X013192Y016970D02*
X013302Y016970D01*
X013302Y016816D01*
X013192Y016816D01*
X013192Y016970D01*
X013192Y016882D02*
X013302Y016882D01*
X013302Y016948D02*
X013192Y016948D01*
D22*
X010531Y004025D02*
X010531Y003797D01*
X010185Y003797D01*
X010185Y004025D01*
X010531Y004025D01*
X010531Y003860D02*
X010185Y003860D01*
X010185Y003923D02*
X010531Y003923D01*
X010531Y003986D02*
X010185Y003986D01*
X010531Y003651D02*
X010531Y003423D01*
X010185Y003423D01*
X010185Y003651D01*
X010531Y003651D01*
X010531Y003486D02*
X010185Y003486D01*
X010185Y003549D02*
X010531Y003549D01*
X010531Y003612D02*
X010185Y003612D01*
X010531Y003277D02*
X010531Y003049D01*
X010185Y003049D01*
X010185Y003277D01*
X010531Y003277D01*
X010531Y003112D02*
X010185Y003112D01*
X010185Y003175D02*
X010531Y003175D01*
X010531Y003238D02*
X010185Y003238D01*
X009511Y003277D02*
X009511Y003049D01*
X009165Y003049D01*
X009165Y003277D01*
X009511Y003277D01*
X009511Y003112D02*
X009165Y003112D01*
X009165Y003175D02*
X009511Y003175D01*
X009511Y003238D02*
X009165Y003238D01*
X009511Y003797D02*
X009511Y004025D01*
X009511Y003797D02*
X009165Y003797D01*
X009165Y004025D01*
X009511Y004025D01*
X009511Y003860D02*
X009165Y003860D01*
X009165Y003923D02*
X009511Y003923D01*
X009511Y003986D02*
X009165Y003986D01*
D23*
X017800Y004087D03*
D24*
X017800Y006087D03*
D25*
X020600Y006387D03*
X020600Y007387D03*
X020600Y008387D03*
X020600Y009387D03*
X020600Y010387D03*
X013600Y009387D03*
X013600Y008387D03*
X013400Y004337D03*
X012900Y003337D03*
X012400Y004337D03*
X011900Y003337D03*
X011400Y004337D03*
D26*
X011276Y005664D02*
X011276Y005876D01*
X011524Y005876D01*
X011524Y005664D01*
X011276Y005664D01*
X011276Y005726D02*
X011524Y005726D01*
X011524Y005788D02*
X011276Y005788D01*
X011276Y005850D02*
X011524Y005850D01*
X011276Y006098D02*
X011276Y006310D01*
X011524Y006310D01*
X011524Y006098D01*
X011276Y006098D01*
X011276Y006160D02*
X011524Y006160D01*
X011524Y006222D02*
X011276Y006222D01*
X011276Y006284D02*
X011524Y006284D01*
X012024Y006310D02*
X012024Y006098D01*
X011776Y006098D01*
X011776Y006310D01*
X012024Y006310D01*
X012024Y006160D02*
X011776Y006160D01*
X011776Y006222D02*
X012024Y006222D01*
X012024Y006284D02*
X011776Y006284D01*
X012024Y005876D02*
X012024Y005664D01*
X011776Y005664D01*
X011776Y005876D01*
X012024Y005876D01*
X012024Y005726D02*
X011776Y005726D01*
X011776Y005788D02*
X012024Y005788D01*
X012024Y005850D02*
X011776Y005850D01*
X012276Y005826D02*
X012276Y005614D01*
X012276Y005826D02*
X012524Y005826D01*
X012524Y005614D01*
X012276Y005614D01*
X012276Y005676D02*
X012524Y005676D01*
X012524Y005738D02*
X012276Y005738D01*
X012276Y005800D02*
X012524Y005800D01*
X012276Y006048D02*
X012276Y006260D01*
X012524Y006260D01*
X012524Y006048D01*
X012276Y006048D01*
X012276Y006110D02*
X012524Y006110D01*
X012524Y006172D02*
X012276Y006172D01*
X012276Y006234D02*
X012524Y006234D01*
X013024Y006260D02*
X013024Y006048D01*
X012776Y006048D01*
X012776Y006260D01*
X013024Y006260D01*
X013024Y006110D02*
X012776Y006110D01*
X012776Y006172D02*
X013024Y006172D01*
X013024Y006234D02*
X012776Y006234D01*
X013024Y005826D02*
X013024Y005614D01*
X012776Y005614D01*
X012776Y005826D01*
X013024Y005826D01*
X013024Y005676D02*
X012776Y005676D01*
X012776Y005738D02*
X013024Y005738D01*
X013024Y005800D02*
X012776Y005800D01*
X013276Y005776D02*
X013276Y005564D01*
X013276Y005776D02*
X013524Y005776D01*
X013524Y005564D01*
X013276Y005564D01*
X013276Y005626D02*
X013524Y005626D01*
X013524Y005688D02*
X013276Y005688D01*
X013276Y005750D02*
X013524Y005750D01*
X013276Y005998D02*
X013276Y006210D01*
X013524Y006210D01*
X013524Y005998D01*
X013276Y005998D01*
X013276Y006060D02*
X013524Y006060D01*
X013524Y006122D02*
X013276Y006122D01*
X013276Y006184D02*
X013524Y006184D01*
X014024Y006210D02*
X014024Y005998D01*
X013776Y005998D01*
X013776Y006210D01*
X014024Y006210D01*
X014024Y006060D02*
X013776Y006060D01*
X013776Y006122D02*
X014024Y006122D01*
X014024Y006184D02*
X013776Y006184D01*
X014024Y005776D02*
X014024Y005564D01*
X013776Y005564D01*
X013776Y005776D01*
X014024Y005776D01*
X014024Y005626D02*
X013776Y005626D01*
X013776Y005688D02*
X014024Y005688D01*
X014024Y005750D02*
X013776Y005750D01*
D27*
X017251Y010502D03*
M02*
