%
M48
M72
T01C0.0130
T02C0.0250
T03C0.0320
T04C0.0400
T05C0.1250
T06C0.1300
T07C0.1450
T08C0.2000
%
T01
X14250Y6487
X14400Y6087
X14400Y6887
X14150Y7237
X14400Y7637
X16000Y7637
X16200Y7287
X16000Y6887
X16150Y6487
X16000Y6087
T02
X18760Y7307
X14120Y13887
X10450Y11887
T03
X9350Y11387
X9350Y10387
X9350Y9387
X9350Y8387
X12350Y8387
X12350Y9387
X12350Y10387
X12350Y11387
X12350Y12887
X12350Y13887
X12350Y14887
X12350Y15887
X12350Y18487
X12350Y19487
X12350Y20987
X12350Y21987
X12350Y23737
X12350Y24737
X12350Y26137
X12350Y27137
X9350Y27137
X9350Y26137
X9350Y24737
X9350Y23737
X9350Y21987
X9350Y20987
X9350Y19487
X9350Y18487
X9350Y15887
X9350Y14887
X9350Y13887
X9350Y12887
X13600Y9387
X13600Y8387
X13400Y4337
X12900Y3337
X12400Y4337
X11900Y3337
X11400Y4337
X20600Y6387
X20600Y7387
X20600Y8387
X20600Y9387
X20600Y10387
T04
X18200Y13487
X18200Y14487
X18200Y15487
X18200Y16487
X18200Y17487
X18200Y18487
X18200Y19487
X18200Y20487
X18200Y21487
X18200Y22487
X18200Y23487
X18200Y24487
X18200Y25487
X17200Y25487
X17250Y26587
X16250Y26587
X15250Y26587
X14400Y27887
X13400Y27887
X17200Y24487
X17200Y23487
X17200Y22487
X17200Y21487
X17200Y20487
X17200Y19487
X17200Y18487
X17200Y17487
X17200Y16487
X17200Y15487
X17200Y14487
X17200Y13487
X17800Y6087
X17800Y4087
X18100Y1487
X17100Y1487
X16100Y1487
X15100Y1487
X14100Y1487
X13100Y1487
X12100Y1487
X11100Y1487
X10100Y1487
X9100Y1487
X9400Y4837
X9400Y5837
X9400Y6837
X6660Y7077
X6660Y5997
X6660Y4907
X5540Y5447
X5540Y6537
X5540Y7627
X5540Y8707
X5540Y9797
X5540Y10887
X5540Y11967
X5540Y13057
X5540Y14147
X5540Y15227
X5540Y16317
X5540Y17407
X5540Y18497
X5540Y19577
X5540Y20667
X5540Y21757
X5540Y22837
X5540Y23927
X6660Y24467
X6660Y23387
X6660Y22297
X6660Y21207
X6660Y20127
X6660Y19037
X6660Y17947
X6660Y16857
X6660Y15777
X6660Y14687
X6660Y13597
X6660Y12517
X6660Y11427
X6660Y10337
X6660Y9257
X6660Y8167
X2100Y7887
X2100Y8887
X2100Y9887
X2100Y10887
X2100Y11887
X2100Y12887
X2100Y13887
X2100Y14887
X2100Y15887
X2100Y16887
X2100Y18387
X2100Y19387
X2100Y20387
X2100Y21887
X2100Y22887
X2100Y23887
X2100Y24887
X13600Y22237
X13600Y21237
X2100Y6637
X2100Y5637
X2100Y4637
T05
X20500Y2287
X20500Y27287
T06
X6100Y27187
X6100Y2187
T07
X2700Y2287
X2700Y27287
T08
X17251Y10502
M30
