G75*
%MOIN*%
%OFA0B0*%
%FSLAX24Y24*%
%IPPOS*%
%LPD*%
%AMOC8*
5,1,8,0,0,1.08239X$1,22.5*
%
%ADD10C,0.0060*%
%ADD11C,0.0061*%
%ADD12OC8,0.0600*%
%ADD13C,0.2000*%
%ADD14C,0.0660*%
%ADD15C,0.0059*%
%ADD16C,0.0700*%
%ADD17C,0.0060*%
%ADD18C,0.0060*%
%ADD19C,0.1000*%
%ADD20OC8,0.1000*%
%ADD21C,0.0560*%
%ADD22C,0.0059*%
%ADD23C,0.0050*%
%ADD24C,0.0100*%
%ADD25C,0.2400*%
%ADD26C,0.0160*%
%ADD27C,0.0200*%
%ADD28C,0.0410*%
%ADD29C,0.0400*%
%ADD30C,0.0300*%
%ADD31C,0.0000*%
%ADD32C,0.0001*%
%ADD33C,0.0110*%
%ADD34C,0.0120*%
%ADD35C,0.0180*%
%ADD36C,0.0290*%
%ADD37C,0.0140*%
D10*
X015241Y009981D02*
X015424Y010164D01*
X015241Y009981D02*
X015206Y010016D01*
X015389Y010199D01*
X015424Y010164D01*
X015300Y010040D02*
X015230Y010040D01*
X015289Y010099D02*
X015359Y010099D01*
X015348Y010158D02*
X015418Y010158D01*
X015563Y010024D02*
X015380Y009841D01*
X015345Y009876D01*
X015528Y010059D01*
X015563Y010024D01*
X015439Y009900D02*
X015369Y009900D01*
X015428Y009959D02*
X015498Y009959D01*
X015487Y010018D02*
X015557Y010018D01*
X015703Y009885D02*
X015520Y009702D01*
X015485Y009737D01*
X015668Y009920D01*
X015703Y009885D01*
X015579Y009761D02*
X015509Y009761D01*
X015568Y009820D02*
X015638Y009820D01*
X015627Y009879D02*
X015697Y009879D01*
X015842Y009746D02*
X015659Y009563D01*
X015624Y009598D01*
X015807Y009781D01*
X015842Y009746D01*
X015718Y009622D02*
X015648Y009622D01*
X015707Y009681D02*
X015777Y009681D01*
X015766Y009740D02*
X015836Y009740D01*
X015981Y009607D02*
X015798Y009424D01*
X015763Y009459D01*
X015946Y009642D01*
X015981Y009607D01*
X015857Y009483D02*
X015787Y009483D01*
X015846Y009542D02*
X015916Y009542D01*
X015905Y009601D02*
X015975Y009601D01*
X016120Y009468D02*
X015937Y009285D01*
X015902Y009320D01*
X016085Y009503D01*
X016120Y009468D01*
X015996Y009344D02*
X015926Y009344D01*
X015985Y009403D02*
X016055Y009403D01*
X016044Y009462D02*
X016114Y009462D01*
X016259Y009328D02*
X016076Y009145D01*
X016041Y009180D01*
X016224Y009363D01*
X016259Y009328D01*
X016135Y009204D02*
X016065Y009204D01*
X016124Y009263D02*
X016194Y009263D01*
X016183Y009322D02*
X016253Y009322D01*
X016399Y009189D02*
X016216Y009006D01*
X016181Y009041D01*
X016364Y009224D01*
X016399Y009189D01*
X016275Y009065D02*
X016205Y009065D01*
X016264Y009124D02*
X016334Y009124D01*
X016323Y009183D02*
X016393Y009183D01*
X016538Y009050D02*
X016355Y008867D01*
X016320Y008902D01*
X016503Y009085D01*
X016538Y009050D01*
X016414Y008926D02*
X016344Y008926D01*
X016403Y008985D02*
X016473Y008985D01*
X016462Y009044D02*
X016532Y009044D01*
X016677Y008911D02*
X016494Y008728D01*
X016459Y008763D01*
X016642Y008946D01*
X016677Y008911D01*
X016553Y008787D02*
X016483Y008787D01*
X016542Y008846D02*
X016612Y008846D01*
X016601Y008905D02*
X016671Y008905D01*
X016816Y008772D02*
X016633Y008589D01*
X016598Y008624D01*
X016781Y008807D01*
X016816Y008772D01*
X016692Y008648D02*
X016622Y008648D01*
X016681Y008707D02*
X016751Y008707D01*
X016740Y008766D02*
X016810Y008766D01*
X016955Y008632D02*
X016772Y008449D01*
X016737Y008484D01*
X016920Y008667D01*
X016955Y008632D01*
X016831Y008508D02*
X016761Y008508D01*
X016820Y008567D02*
X016890Y008567D01*
X016879Y008626D02*
X016949Y008626D01*
X017580Y008667D02*
X017763Y008484D01*
X017728Y008449D01*
X017545Y008632D01*
X017580Y008667D01*
X017669Y008508D02*
X017739Y008508D01*
X017680Y008567D02*
X017610Y008567D01*
X017621Y008626D02*
X017551Y008626D01*
X017719Y008807D02*
X017902Y008624D01*
X017867Y008589D01*
X017684Y008772D01*
X017719Y008807D01*
X017808Y008648D02*
X017878Y008648D01*
X017819Y008707D02*
X017749Y008707D01*
X017760Y008766D02*
X017690Y008766D01*
X017858Y008946D02*
X018041Y008763D01*
X018006Y008728D01*
X017823Y008911D01*
X017858Y008946D01*
X017947Y008787D02*
X018017Y008787D01*
X017958Y008846D02*
X017888Y008846D01*
X017899Y008905D02*
X017829Y008905D01*
X017997Y009085D02*
X018180Y008902D01*
X018145Y008867D01*
X017962Y009050D01*
X017997Y009085D01*
X018086Y008926D02*
X018156Y008926D01*
X018097Y008985D02*
X018027Y008985D01*
X018038Y009044D02*
X017968Y009044D01*
X018136Y009224D02*
X018319Y009041D01*
X018284Y009006D01*
X018101Y009189D01*
X018136Y009224D01*
X018225Y009065D02*
X018295Y009065D01*
X018236Y009124D02*
X018166Y009124D01*
X018177Y009183D02*
X018107Y009183D01*
X018276Y009363D02*
X018459Y009180D01*
X018424Y009145D01*
X018241Y009328D01*
X018276Y009363D01*
X018365Y009204D02*
X018435Y009204D01*
X018376Y009263D02*
X018306Y009263D01*
X018317Y009322D02*
X018247Y009322D01*
X018415Y009503D02*
X018598Y009320D01*
X018563Y009285D01*
X018380Y009468D01*
X018415Y009503D01*
X018504Y009344D02*
X018574Y009344D01*
X018515Y009403D02*
X018445Y009403D01*
X018456Y009462D02*
X018386Y009462D01*
X018554Y009642D02*
X018737Y009459D01*
X018702Y009424D01*
X018519Y009607D01*
X018554Y009642D01*
X018643Y009483D02*
X018713Y009483D01*
X018654Y009542D02*
X018584Y009542D01*
X018595Y009601D02*
X018525Y009601D01*
X018693Y009781D02*
X018876Y009598D01*
X018841Y009563D01*
X018658Y009746D01*
X018693Y009781D01*
X018782Y009622D02*
X018852Y009622D01*
X018793Y009681D02*
X018723Y009681D01*
X018734Y009740D02*
X018664Y009740D01*
X018832Y009920D02*
X019015Y009737D01*
X018980Y009702D01*
X018797Y009885D01*
X018832Y009920D01*
X018921Y009761D02*
X018991Y009761D01*
X018932Y009820D02*
X018862Y009820D01*
X018873Y009879D02*
X018803Y009879D01*
X018972Y010059D02*
X019155Y009876D01*
X019120Y009841D01*
X018937Y010024D01*
X018972Y010059D01*
X019061Y009900D02*
X019131Y009900D01*
X019072Y009959D02*
X019002Y009959D01*
X019013Y010018D02*
X018943Y010018D01*
X019111Y010199D02*
X019294Y010016D01*
X019259Y009981D01*
X019076Y010164D01*
X019111Y010199D01*
X019200Y010040D02*
X019270Y010040D01*
X019211Y010099D02*
X019141Y010099D01*
X019152Y010158D02*
X019082Y010158D01*
X019076Y010823D02*
X019259Y011006D01*
X019294Y010971D01*
X019111Y010788D01*
X019076Y010823D01*
X019100Y010847D02*
X019170Y010847D01*
X019159Y010906D02*
X019229Y010906D01*
X019218Y010965D02*
X019288Y010965D01*
X019120Y011145D02*
X018937Y010962D01*
X019120Y011145D02*
X019155Y011110D01*
X018972Y010927D01*
X018937Y010962D01*
X018961Y010986D02*
X019031Y010986D01*
X019020Y011045D02*
X019090Y011045D01*
X019079Y011104D02*
X019149Y011104D01*
X018980Y011284D02*
X018797Y011101D01*
X018980Y011284D02*
X019015Y011249D01*
X018832Y011066D01*
X018797Y011101D01*
X018821Y011125D02*
X018891Y011125D01*
X018880Y011184D02*
X018950Y011184D01*
X018939Y011243D02*
X019009Y011243D01*
X018841Y011423D02*
X018658Y011240D01*
X018841Y011423D02*
X018876Y011388D01*
X018693Y011205D01*
X018658Y011240D01*
X018682Y011264D02*
X018752Y011264D01*
X018741Y011323D02*
X018811Y011323D01*
X018800Y011382D02*
X018870Y011382D01*
X018702Y011563D02*
X018519Y011380D01*
X018702Y011563D02*
X018737Y011528D01*
X018554Y011345D01*
X018519Y011380D01*
X018543Y011404D02*
X018613Y011404D01*
X018602Y011463D02*
X018672Y011463D01*
X018661Y011522D02*
X018731Y011522D01*
X018563Y011702D02*
X018380Y011519D01*
X018563Y011702D02*
X018598Y011667D01*
X018415Y011484D01*
X018380Y011519D01*
X018404Y011543D02*
X018474Y011543D01*
X018463Y011602D02*
X018533Y011602D01*
X018522Y011661D02*
X018592Y011661D01*
X018424Y011841D02*
X018241Y011658D01*
X018424Y011841D02*
X018459Y011806D01*
X018276Y011623D01*
X018241Y011658D01*
X018265Y011682D02*
X018335Y011682D01*
X018324Y011741D02*
X018394Y011741D01*
X018383Y011800D02*
X018453Y011800D01*
X018284Y011980D02*
X018101Y011797D01*
X018284Y011980D02*
X018319Y011945D01*
X018136Y011762D01*
X018101Y011797D01*
X018125Y011821D02*
X018195Y011821D01*
X018184Y011880D02*
X018254Y011880D01*
X018243Y011939D02*
X018313Y011939D01*
X018145Y012119D02*
X017962Y011936D01*
X018145Y012119D02*
X018180Y012084D01*
X017997Y011901D01*
X017962Y011936D01*
X017986Y011960D02*
X018056Y011960D01*
X018045Y012019D02*
X018115Y012019D01*
X018104Y012078D02*
X018174Y012078D01*
X018006Y012259D02*
X017823Y012076D01*
X018006Y012259D02*
X018041Y012224D01*
X017858Y012041D01*
X017823Y012076D01*
X017847Y012100D02*
X017917Y012100D01*
X017906Y012159D02*
X017976Y012159D01*
X017965Y012218D02*
X018035Y012218D01*
X017867Y012398D02*
X017684Y012215D01*
X017867Y012398D02*
X017902Y012363D01*
X017719Y012180D01*
X017684Y012215D01*
X017708Y012239D02*
X017778Y012239D01*
X017767Y012298D02*
X017837Y012298D01*
X017826Y012357D02*
X017896Y012357D01*
X017728Y012537D02*
X017545Y012354D01*
X017728Y012537D02*
X017763Y012502D01*
X017580Y012319D01*
X017545Y012354D01*
X017569Y012378D02*
X017639Y012378D01*
X017628Y012437D02*
X017698Y012437D01*
X017687Y012496D02*
X017757Y012496D01*
X016920Y012319D02*
X016737Y012502D01*
X016772Y012537D01*
X016955Y012354D01*
X016920Y012319D01*
X016931Y012378D02*
X016861Y012378D01*
X016872Y012437D02*
X016802Y012437D01*
X016813Y012496D02*
X016743Y012496D01*
X016598Y012363D02*
X016781Y012180D01*
X016598Y012363D02*
X016633Y012398D01*
X016816Y012215D01*
X016781Y012180D01*
X016792Y012239D02*
X016722Y012239D01*
X016733Y012298D02*
X016663Y012298D01*
X016674Y012357D02*
X016604Y012357D01*
X016459Y012224D02*
X016642Y012041D01*
X016459Y012224D02*
X016494Y012259D01*
X016677Y012076D01*
X016642Y012041D01*
X016653Y012100D02*
X016583Y012100D01*
X016594Y012159D02*
X016524Y012159D01*
X016535Y012218D02*
X016465Y012218D01*
X016320Y012084D02*
X016503Y011901D01*
X016320Y012084D02*
X016355Y012119D01*
X016538Y011936D01*
X016503Y011901D01*
X016514Y011960D02*
X016444Y011960D01*
X016455Y012019D02*
X016385Y012019D01*
X016396Y012078D02*
X016326Y012078D01*
X016181Y011945D02*
X016364Y011762D01*
X016181Y011945D02*
X016216Y011980D01*
X016399Y011797D01*
X016364Y011762D01*
X016375Y011821D02*
X016305Y011821D01*
X016316Y011880D02*
X016246Y011880D01*
X016257Y011939D02*
X016187Y011939D01*
X016041Y011806D02*
X016224Y011623D01*
X016041Y011806D02*
X016076Y011841D01*
X016259Y011658D01*
X016224Y011623D01*
X016235Y011682D02*
X016165Y011682D01*
X016176Y011741D02*
X016106Y011741D01*
X016117Y011800D02*
X016047Y011800D01*
X015902Y011667D02*
X016085Y011484D01*
X015902Y011667D02*
X015937Y011702D01*
X016120Y011519D01*
X016085Y011484D01*
X016096Y011543D02*
X016026Y011543D01*
X016037Y011602D02*
X015967Y011602D01*
X015978Y011661D02*
X015908Y011661D01*
X015763Y011528D02*
X015946Y011345D01*
X015763Y011528D02*
X015798Y011563D01*
X015981Y011380D01*
X015946Y011345D01*
X015957Y011404D02*
X015887Y011404D01*
X015898Y011463D02*
X015828Y011463D01*
X015839Y011522D02*
X015769Y011522D01*
X015624Y011388D02*
X015807Y011205D01*
X015624Y011388D02*
X015659Y011423D01*
X015842Y011240D01*
X015807Y011205D01*
X015818Y011264D02*
X015748Y011264D01*
X015759Y011323D02*
X015689Y011323D01*
X015700Y011382D02*
X015630Y011382D01*
X015485Y011249D02*
X015668Y011066D01*
X015485Y011249D02*
X015520Y011284D01*
X015703Y011101D01*
X015668Y011066D01*
X015679Y011125D02*
X015609Y011125D01*
X015620Y011184D02*
X015550Y011184D01*
X015561Y011243D02*
X015491Y011243D01*
X015345Y011110D02*
X015528Y010927D01*
X015345Y011110D02*
X015380Y011145D01*
X015563Y010962D01*
X015528Y010927D01*
X015539Y010986D02*
X015469Y010986D01*
X015480Y011045D02*
X015410Y011045D01*
X015421Y011104D02*
X015351Y011104D01*
X015206Y010971D02*
X015389Y010788D01*
X015206Y010971D02*
X015241Y011006D01*
X015424Y010823D01*
X015389Y010788D01*
X015400Y010847D02*
X015330Y010847D01*
X015341Y010906D02*
X015271Y010906D01*
X015282Y010965D02*
X015212Y010965D01*
D11*
X017297Y007637D02*
X017645Y007637D01*
X017297Y007637D02*
X017297Y007997D01*
X017645Y007997D01*
X017645Y007637D01*
X017645Y007697D02*
X017297Y007697D01*
X017297Y007757D02*
X017645Y007757D01*
X017645Y007817D02*
X017297Y007817D01*
X017297Y007877D02*
X017645Y007877D01*
X017645Y007937D02*
X017297Y007937D01*
X017297Y007997D02*
X017645Y007997D01*
X017935Y007637D02*
X018283Y007637D01*
X017935Y007637D02*
X017935Y007997D01*
X018283Y007997D01*
X018283Y007637D01*
X018283Y007697D02*
X017935Y007697D01*
X017935Y007757D02*
X018283Y007757D01*
X018283Y007817D02*
X017935Y007817D01*
X017935Y007877D02*
X018283Y007877D01*
X018283Y007937D02*
X017935Y007937D01*
X017935Y007997D02*
X018283Y007997D01*
X018940Y008071D02*
X018940Y007723D01*
X018580Y007723D01*
X018580Y008071D01*
X018940Y008071D01*
X018940Y007783D02*
X018580Y007783D01*
X018580Y007843D02*
X018940Y007843D01*
X018940Y007903D02*
X018580Y007903D01*
X018580Y007963D02*
X018940Y007963D01*
X018940Y008023D02*
X018580Y008023D01*
X018940Y008362D02*
X018940Y008710D01*
X018940Y008362D02*
X018580Y008362D01*
X018580Y008710D01*
X018940Y008710D01*
X018940Y008422D02*
X018580Y008422D01*
X018580Y008482D02*
X018940Y008482D01*
X018940Y008542D02*
X018580Y008542D01*
X018580Y008602D02*
X018940Y008602D01*
X018940Y008662D02*
X018580Y008662D01*
X008420Y004280D02*
X008420Y003932D01*
X008420Y004280D02*
X008780Y004280D01*
X008780Y003932D01*
X008420Y003932D01*
X008420Y003992D02*
X008780Y003992D01*
X008780Y004052D02*
X008420Y004052D01*
X008420Y004112D02*
X008780Y004112D01*
X008780Y004172D02*
X008420Y004172D01*
X008420Y004232D02*
X008780Y004232D01*
X008420Y003641D02*
X008420Y003293D01*
X008420Y003641D02*
X008780Y003641D01*
X008780Y003293D01*
X008420Y003293D01*
X008420Y003353D02*
X008780Y003353D01*
X008780Y003413D02*
X008420Y003413D01*
X008420Y003473D02*
X008780Y003473D01*
X008780Y003533D02*
X008420Y003533D01*
X008420Y003593D02*
X008780Y003593D01*
D12*
X006660Y004907D03*
X006660Y005997D03*
X006660Y007077D03*
X006660Y008167D03*
X006660Y009257D03*
X006660Y010337D03*
X006660Y011427D03*
X006660Y012517D03*
X006660Y013597D03*
X006660Y014687D03*
X006660Y015777D03*
X006660Y016857D03*
X006660Y017947D03*
X006660Y019037D03*
X006660Y020127D03*
X006660Y021207D03*
X006660Y022297D03*
X006660Y023387D03*
X006660Y024467D03*
X005540Y023927D03*
X005540Y022837D03*
X005540Y021757D03*
X005540Y020667D03*
X005540Y019577D03*
X005540Y018497D03*
X005540Y017407D03*
X005540Y016317D03*
X005540Y015227D03*
X005540Y014147D03*
X005540Y013057D03*
X005540Y011967D03*
X005540Y010887D03*
X005540Y009797D03*
X005540Y008707D03*
X005540Y007627D03*
X005540Y006537D03*
X005540Y005447D03*
D13*
X006100Y002187D03*
X006100Y027187D03*
D14*
X009350Y027137D03*
X009350Y026137D03*
X009350Y024737D03*
X009350Y023737D03*
X009350Y021987D03*
X009350Y020987D03*
X009350Y019487D03*
X009350Y018487D03*
X009350Y015887D03*
X009350Y014887D03*
X009350Y013887D03*
X009350Y012887D03*
X009350Y011387D03*
X009350Y010387D03*
X009350Y009387D03*
X009350Y008387D03*
X012350Y008387D03*
X012350Y009387D03*
X012350Y010387D03*
X012350Y011387D03*
X012350Y012887D03*
X012350Y013887D03*
X012350Y014887D03*
X012350Y015887D03*
X012350Y018487D03*
X012350Y019487D03*
X012350Y020987D03*
X012350Y021987D03*
X012350Y023737D03*
X012350Y024737D03*
X012350Y026137D03*
X012350Y027137D03*
D15*
X008531Y023567D02*
X008531Y023275D01*
X008169Y023275D01*
X008169Y023567D01*
X008531Y023567D01*
X008531Y023333D02*
X008169Y023333D01*
X008169Y023391D02*
X008531Y023391D01*
X008531Y023449D02*
X008169Y023449D01*
X008169Y023507D02*
X008531Y023507D01*
X008531Y023565D02*
X008169Y023565D01*
X008531Y022898D02*
X008531Y022606D01*
X008169Y022606D01*
X008169Y022898D01*
X008531Y022898D01*
X008531Y022664D02*
X008169Y022664D01*
X008169Y022722D02*
X008531Y022722D01*
X008531Y022780D02*
X008169Y022780D01*
X008169Y022838D02*
X008531Y022838D01*
X008531Y022896D02*
X008169Y022896D01*
X009869Y017668D02*
X010161Y017668D01*
X010161Y017306D01*
X009869Y017306D01*
X009869Y017668D01*
X009869Y017364D02*
X010161Y017364D01*
X010161Y017422D02*
X009869Y017422D01*
X009869Y017480D02*
X010161Y017480D01*
X010161Y017538D02*
X009869Y017538D01*
X009869Y017596D02*
X010161Y017596D01*
X010161Y017654D02*
X009869Y017654D01*
X010539Y017668D02*
X010831Y017668D01*
X010831Y017306D01*
X010539Y017306D01*
X010539Y017668D01*
X010539Y017364D02*
X010831Y017364D01*
X010831Y017422D02*
X010539Y017422D01*
X010539Y017480D02*
X010831Y017480D01*
X010831Y017538D02*
X010539Y017538D01*
X010539Y017596D02*
X010831Y017596D01*
X010831Y017654D02*
X010539Y017654D01*
X011269Y017668D02*
X011561Y017668D01*
X011561Y017306D01*
X011269Y017306D01*
X011269Y017668D01*
X011269Y017364D02*
X011561Y017364D01*
X011561Y017422D02*
X011269Y017422D01*
X011269Y017480D02*
X011561Y017480D01*
X011561Y017538D02*
X011269Y017538D01*
X011269Y017596D02*
X011561Y017596D01*
X011561Y017654D02*
X011269Y017654D01*
X011939Y017668D02*
X012231Y017668D01*
X012231Y017306D01*
X011939Y017306D01*
X011939Y017668D01*
X011939Y017364D02*
X012231Y017364D01*
X012231Y017422D02*
X011939Y017422D01*
X011939Y017480D02*
X012231Y017480D01*
X012231Y017538D02*
X011939Y017538D01*
X011939Y017596D02*
X012231Y017596D01*
X012231Y017654D02*
X011939Y017654D01*
X013481Y017606D02*
X013481Y017898D01*
X013481Y017606D02*
X013119Y017606D01*
X013119Y017898D01*
X013481Y017898D01*
X013481Y017664D02*
X013119Y017664D01*
X013119Y017722D02*
X013481Y017722D01*
X013481Y017780D02*
X013119Y017780D01*
X013119Y017838D02*
X013481Y017838D01*
X013481Y017896D02*
X013119Y017896D01*
X013481Y018275D02*
X013481Y018567D01*
X013481Y018275D02*
X013119Y018275D01*
X013119Y018567D01*
X013481Y018567D01*
X013481Y018333D02*
X013119Y018333D01*
X013119Y018391D02*
X013481Y018391D01*
X013481Y018449D02*
X013119Y018449D01*
X013119Y018507D02*
X013481Y018507D01*
X013481Y018565D02*
X013119Y018565D01*
X012999Y015767D02*
X012999Y015475D01*
X012999Y015767D02*
X013361Y015767D01*
X013361Y015475D01*
X012999Y015475D01*
X012999Y015533D02*
X013361Y015533D01*
X013361Y015591D02*
X012999Y015591D01*
X012999Y015649D02*
X013361Y015649D01*
X013361Y015707D02*
X012999Y015707D01*
X012999Y015765D02*
X013361Y015765D01*
X012999Y015098D02*
X012999Y014806D01*
X012999Y015098D02*
X013361Y015098D01*
X013361Y014806D01*
X012999Y014806D01*
X012999Y014864D02*
X013361Y014864D01*
X013361Y014922D02*
X012999Y014922D01*
X012999Y014980D02*
X013361Y014980D01*
X013361Y015038D02*
X012999Y015038D01*
X012999Y015096D02*
X013361Y015096D01*
X013381Y013717D02*
X013381Y013425D01*
X013019Y013425D01*
X013019Y013717D01*
X013381Y013717D01*
X013381Y013483D02*
X013019Y013483D01*
X013019Y013541D02*
X013381Y013541D01*
X013381Y013599D02*
X013019Y013599D01*
X013019Y013657D02*
X013381Y013657D01*
X013381Y013715D02*
X013019Y013715D01*
X013381Y013048D02*
X013381Y012756D01*
X013019Y012756D01*
X013019Y013048D01*
X013381Y013048D01*
X013381Y012814D02*
X013019Y012814D01*
X013019Y012872D02*
X013381Y012872D01*
X013381Y012930D02*
X013019Y012930D01*
X013019Y012988D02*
X013381Y012988D01*
X013381Y013046D02*
X013019Y013046D01*
X012969Y011267D02*
X012969Y010975D01*
X012969Y011267D02*
X013331Y011267D01*
X013331Y010975D01*
X012969Y010975D01*
X012969Y011033D02*
X013331Y011033D01*
X013331Y011091D02*
X012969Y011091D01*
X012969Y011149D02*
X013331Y011149D01*
X013331Y011207D02*
X012969Y011207D01*
X012969Y011265D02*
X013331Y011265D01*
X012969Y010598D02*
X012969Y010306D01*
X012969Y010598D02*
X013331Y010598D01*
X013331Y010306D01*
X012969Y010306D01*
X012969Y010364D02*
X013331Y010364D01*
X013331Y010422D02*
X012969Y010422D01*
X012969Y010480D02*
X013331Y010480D01*
X013331Y010538D02*
X012969Y010538D01*
X012969Y010596D02*
X013331Y010596D01*
X019332Y010624D02*
X019539Y010831D01*
X019794Y010576D01*
X019587Y010369D01*
X019332Y010624D01*
X019529Y010427D02*
X019645Y010427D01*
X019703Y010485D02*
X019471Y010485D01*
X019413Y010543D02*
X019761Y010543D01*
X019769Y010601D02*
X019355Y010601D01*
X019367Y010659D02*
X019711Y010659D01*
X019653Y010717D02*
X019425Y010717D01*
X019483Y010775D02*
X019595Y010775D01*
X019806Y011097D02*
X020013Y011304D01*
X020268Y011049D01*
X020061Y010842D01*
X019806Y011097D01*
X020003Y010900D02*
X020119Y010900D01*
X020177Y010958D02*
X019945Y010958D01*
X019887Y011016D02*
X020235Y011016D01*
X020243Y011074D02*
X019829Y011074D01*
X019841Y011132D02*
X020185Y011132D01*
X020127Y011190D02*
X019899Y011190D01*
X019957Y011248D02*
X020069Y011248D01*
D16*
X002100Y004637D03*
X002100Y005637D03*
X002100Y006637D03*
X002100Y007887D03*
X002100Y008887D03*
X002100Y009887D03*
X002100Y010887D03*
X002100Y011887D03*
X002100Y012887D03*
X002100Y013887D03*
X002100Y014887D03*
X002100Y015887D03*
X002100Y016887D03*
X002100Y018387D03*
X002100Y019387D03*
X002100Y020387D03*
X002100Y021887D03*
X002100Y022887D03*
X002100Y023887D03*
X002100Y024887D03*
X013400Y027887D03*
X014400Y027887D03*
X015250Y026587D03*
X016250Y026587D03*
X017250Y026587D03*
X017200Y025487D03*
X018200Y025487D03*
X018200Y024487D03*
X018200Y023487D03*
X018200Y022487D03*
X017200Y022487D03*
X017200Y023487D03*
X017200Y024487D03*
X017200Y021487D03*
X017200Y020487D03*
X017200Y019487D03*
X018200Y019487D03*
X018200Y020487D03*
X018200Y021487D03*
X018200Y018487D03*
X018200Y017487D03*
X018200Y016487D03*
X017200Y016487D03*
X017200Y017487D03*
X017200Y018487D03*
X017200Y015487D03*
X017200Y014487D03*
X017200Y013487D03*
X018200Y013487D03*
X018200Y014487D03*
X018200Y015487D03*
X013600Y021237D03*
X013600Y022237D03*
X009400Y006837D03*
X009400Y005837D03*
X009400Y004837D03*
X009100Y001487D03*
X010100Y001487D03*
X011100Y001487D03*
X012100Y001487D03*
X013100Y001487D03*
X014100Y001487D03*
X015100Y001487D03*
X016100Y001487D03*
X017100Y001487D03*
X018100Y001487D03*
D17*
X013098Y011751D02*
X013002Y011751D01*
X013098Y011751D02*
X013098Y011611D01*
X013002Y011611D01*
X013002Y011751D01*
X013002Y011670D02*
X013098Y011670D01*
X013098Y011729D02*
X013002Y011729D01*
X012901Y012263D02*
X012805Y012263D01*
X012901Y012263D02*
X012901Y012123D01*
X012805Y012123D01*
X012805Y012263D01*
X012805Y012182D02*
X012901Y012182D01*
X012901Y012241D02*
X012805Y012241D01*
X013199Y012263D02*
X013295Y012263D01*
X013295Y012123D01*
X013199Y012123D01*
X013199Y012263D01*
X013199Y012182D02*
X013295Y012182D01*
X013295Y012241D02*
X013199Y012241D01*
X013098Y016451D02*
X013002Y016451D01*
X013098Y016451D02*
X013098Y016311D01*
X013002Y016311D01*
X013002Y016451D01*
X013002Y016370D02*
X013098Y016370D01*
X013098Y016429D02*
X013002Y016429D01*
X012901Y016963D02*
X012805Y016963D01*
X012901Y016963D02*
X012901Y016823D01*
X012805Y016823D01*
X012805Y016963D01*
X012805Y016882D02*
X012901Y016882D01*
X012901Y016941D02*
X012805Y016941D01*
X013199Y016963D02*
X013295Y016963D01*
X013295Y016823D01*
X013199Y016823D01*
X013199Y016963D01*
X013199Y016882D02*
X013295Y016882D01*
X013295Y016941D02*
X013199Y016941D01*
D18*
X010523Y004017D02*
X010523Y003805D01*
X010193Y003805D01*
X010193Y004017D01*
X010523Y004017D01*
X010523Y003864D02*
X010193Y003864D01*
X010193Y003923D02*
X010523Y003923D01*
X010523Y003982D02*
X010193Y003982D01*
X010523Y003643D02*
X010523Y003431D01*
X010193Y003431D01*
X010193Y003643D01*
X010523Y003643D01*
X010523Y003490D02*
X010193Y003490D01*
X010193Y003549D02*
X010523Y003549D01*
X010523Y003608D02*
X010193Y003608D01*
X010523Y003269D02*
X010523Y003057D01*
X010193Y003057D01*
X010193Y003269D01*
X010523Y003269D01*
X010523Y003116D02*
X010193Y003116D01*
X010193Y003175D02*
X010523Y003175D01*
X010523Y003234D02*
X010193Y003234D01*
X009503Y003269D02*
X009503Y003057D01*
X009173Y003057D01*
X009173Y003269D01*
X009503Y003269D01*
X009503Y003116D02*
X009173Y003116D01*
X009173Y003175D02*
X009503Y003175D01*
X009503Y003234D02*
X009173Y003234D01*
X009503Y003805D02*
X009503Y004017D01*
X009503Y003805D02*
X009173Y003805D01*
X009173Y004017D01*
X009503Y004017D01*
X009503Y003864D02*
X009173Y003864D01*
X009173Y003923D02*
X009503Y003923D01*
X009503Y003982D02*
X009173Y003982D01*
D19*
X017800Y004087D03*
D20*
X017800Y006087D03*
D21*
X020600Y006387D03*
X020600Y007387D03*
X020600Y008387D03*
X020600Y009387D03*
X020600Y010387D03*
X013600Y009387D03*
X013600Y008387D03*
X013400Y004337D03*
X012900Y003337D03*
X012400Y004337D03*
X011900Y003337D03*
X011400Y004337D03*
D22*
X011284Y005672D02*
X011284Y005868D01*
X011516Y005868D01*
X011516Y005672D01*
X011284Y005672D01*
X011284Y005730D02*
X011516Y005730D01*
X011516Y005788D02*
X011284Y005788D01*
X011284Y005846D02*
X011516Y005846D01*
X011284Y006106D02*
X011284Y006302D01*
X011516Y006302D01*
X011516Y006106D01*
X011284Y006106D01*
X011284Y006164D02*
X011516Y006164D01*
X011516Y006222D02*
X011284Y006222D01*
X011284Y006280D02*
X011516Y006280D01*
X012016Y006302D02*
X012016Y006106D01*
X011784Y006106D01*
X011784Y006302D01*
X012016Y006302D01*
X012016Y006164D02*
X011784Y006164D01*
X011784Y006222D02*
X012016Y006222D01*
X012016Y006280D02*
X011784Y006280D01*
X012016Y005868D02*
X012016Y005672D01*
X011784Y005672D01*
X011784Y005868D01*
X012016Y005868D01*
X012016Y005730D02*
X011784Y005730D01*
X011784Y005788D02*
X012016Y005788D01*
X012016Y005846D02*
X011784Y005846D01*
X012284Y005818D02*
X012284Y005622D01*
X012284Y005818D02*
X012516Y005818D01*
X012516Y005622D01*
X012284Y005622D01*
X012284Y005680D02*
X012516Y005680D01*
X012516Y005738D02*
X012284Y005738D01*
X012284Y005796D02*
X012516Y005796D01*
X012284Y006056D02*
X012284Y006252D01*
X012516Y006252D01*
X012516Y006056D01*
X012284Y006056D01*
X012284Y006114D02*
X012516Y006114D01*
X012516Y006172D02*
X012284Y006172D01*
X012284Y006230D02*
X012516Y006230D01*
X013016Y006252D02*
X013016Y006056D01*
X012784Y006056D01*
X012784Y006252D01*
X013016Y006252D01*
X013016Y006114D02*
X012784Y006114D01*
X012784Y006172D02*
X013016Y006172D01*
X013016Y006230D02*
X012784Y006230D01*
X013016Y005818D02*
X013016Y005622D01*
X012784Y005622D01*
X012784Y005818D01*
X013016Y005818D01*
X013016Y005680D02*
X012784Y005680D01*
X012784Y005738D02*
X013016Y005738D01*
X013016Y005796D02*
X012784Y005796D01*
X013284Y005768D02*
X013284Y005572D01*
X013284Y005768D02*
X013516Y005768D01*
X013516Y005572D01*
X013284Y005572D01*
X013284Y005630D02*
X013516Y005630D01*
X013516Y005688D02*
X013284Y005688D01*
X013284Y005746D02*
X013516Y005746D01*
X013284Y006006D02*
X013284Y006202D01*
X013516Y006202D01*
X013516Y006006D01*
X013284Y006006D01*
X013284Y006064D02*
X013516Y006064D01*
X013516Y006122D02*
X013284Y006122D01*
X013284Y006180D02*
X013516Y006180D01*
X014016Y006202D02*
X014016Y006006D01*
X013784Y006006D01*
X013784Y006202D01*
X014016Y006202D01*
X014016Y006064D02*
X013784Y006064D01*
X013784Y006122D02*
X014016Y006122D01*
X014016Y006180D02*
X013784Y006180D01*
X014016Y005768D02*
X014016Y005572D01*
X013784Y005572D01*
X013784Y005768D01*
X014016Y005768D01*
X014016Y005630D02*
X013784Y005630D01*
X013784Y005688D02*
X014016Y005688D01*
X014016Y005746D02*
X013784Y005746D01*
D23*
X016625Y009262D02*
X017875Y009262D01*
X017923Y009311D02*
X016577Y009311D01*
X016528Y009359D02*
X017972Y009359D01*
X018020Y009408D02*
X016480Y009408D01*
X016431Y009456D02*
X018069Y009456D01*
X018117Y009505D02*
X016383Y009505D01*
X016334Y009553D02*
X018166Y009553D01*
X018214Y009602D02*
X016286Y009602D01*
X016237Y009650D02*
X018263Y009650D01*
X018311Y009699D02*
X016189Y009699D01*
X016140Y009747D02*
X018360Y009747D01*
X018408Y009796D02*
X016092Y009796D01*
X016043Y009844D02*
X018457Y009844D01*
X018505Y009893D02*
X015995Y009893D01*
X015946Y009941D02*
X018554Y009941D01*
X018602Y009990D02*
X015898Y009990D01*
X015849Y010038D02*
X018651Y010038D01*
X018699Y010087D02*
X015801Y010087D01*
X015752Y010135D02*
X018748Y010135D01*
X018796Y010184D02*
X015704Y010184D01*
X015655Y010232D02*
X018845Y010232D01*
X018893Y010281D02*
X015607Y010281D01*
X015558Y010329D02*
X018942Y010329D01*
X018990Y010378D02*
X015510Y010378D01*
X015500Y010388D02*
X015500Y010588D01*
X017150Y012238D01*
X017350Y012238D01*
X019000Y010588D01*
X019000Y010388D01*
X017350Y008738D01*
X017150Y008738D01*
X015500Y010388D01*
X015500Y010426D02*
X019000Y010426D01*
X019000Y010475D02*
X015500Y010475D01*
X015500Y010523D02*
X019000Y010523D01*
X019000Y010572D02*
X015500Y010572D01*
X015533Y010620D02*
X018967Y010620D01*
X018919Y010669D02*
X015581Y010669D01*
X015630Y010717D02*
X018870Y010717D01*
X018822Y010766D02*
X015678Y010766D01*
X015727Y010814D02*
X018773Y010814D01*
X018725Y010863D02*
X015775Y010863D01*
X015824Y010911D02*
X018676Y010911D01*
X018628Y010960D02*
X015872Y010960D01*
X015921Y011008D02*
X018579Y011008D01*
X018531Y011057D02*
X015969Y011057D01*
X016018Y011105D02*
X018482Y011105D01*
X018434Y011154D02*
X016066Y011154D01*
X016115Y011202D02*
X018385Y011202D01*
X018337Y011251D02*
X016163Y011251D01*
X016212Y011299D02*
X018288Y011299D01*
X018240Y011348D02*
X016260Y011348D01*
X016309Y011396D02*
X018191Y011396D01*
X018143Y011445D02*
X016357Y011445D01*
X016406Y011493D02*
X018094Y011493D01*
X018046Y011542D02*
X016454Y011542D01*
X016503Y011590D02*
X017997Y011590D01*
X017949Y011639D02*
X016551Y011639D01*
X016600Y011687D02*
X017900Y011687D01*
X017852Y011736D02*
X016648Y011736D01*
X016697Y011784D02*
X017803Y011784D01*
X017755Y011833D02*
X016745Y011833D01*
X016794Y011881D02*
X017706Y011881D01*
X017658Y011930D02*
X016842Y011930D01*
X016891Y011978D02*
X017609Y011978D01*
X017561Y012027D02*
X016939Y012027D01*
X016988Y012075D02*
X017512Y012075D01*
X017464Y012124D02*
X017036Y012124D01*
X017085Y012172D02*
X017415Y012172D01*
X017367Y012221D02*
X017133Y012221D01*
X016674Y009214D02*
X017826Y009214D01*
X017778Y009165D02*
X016722Y009165D01*
X016771Y009117D02*
X017729Y009117D01*
X017681Y009068D02*
X016819Y009068D01*
X016868Y009020D02*
X017632Y009020D01*
X017584Y008971D02*
X016916Y008971D01*
X016965Y008923D02*
X017535Y008923D01*
X017487Y008874D02*
X017013Y008874D01*
X017062Y008826D02*
X017438Y008826D01*
X017390Y008777D02*
X017110Y008777D01*
D24*
X016846Y008558D02*
X016800Y008512D01*
X016800Y006937D01*
X016350Y006487D01*
X016150Y006487D01*
X016000Y006087D02*
X016350Y006087D01*
X017000Y006737D01*
X017000Y008187D01*
X017200Y008387D01*
X017482Y008387D01*
X017654Y008558D01*
X017793Y008698D02*
X017954Y008537D01*
X018000Y008537D01*
X018100Y008637D01*
X018100Y008669D01*
X017932Y008837D01*
X018071Y008976D02*
X018241Y008807D01*
X018280Y008807D01*
X018380Y008907D01*
X018380Y008947D01*
X018379Y008947D01*
X018210Y009115D01*
X018350Y009254D02*
X018016Y009588D01*
X018000Y009588D01*
X018150Y009732D02*
X018150Y009738D01*
X018150Y009732D02*
X018489Y009394D01*
X018628Y009533D02*
X019350Y008811D01*
X019350Y007537D01*
X020500Y006387D01*
X020600Y006387D01*
X020600Y007387D02*
X019570Y008417D01*
X019570Y008869D01*
X018767Y009672D01*
X018906Y009811D02*
X020331Y008387D01*
X020600Y008387D01*
X020600Y009387D02*
X020250Y009737D01*
X019259Y009737D01*
X019046Y009950D01*
X019185Y010090D02*
X019563Y010468D01*
X019563Y010600D01*
X019185Y010897D02*
X020600Y012312D01*
X020600Y021087D01*
X018200Y023487D01*
X018200Y022487D02*
X020400Y020287D01*
X020400Y012390D01*
X019046Y011036D01*
X018906Y011175D02*
X020200Y012469D01*
X020200Y019487D01*
X018200Y021487D01*
X018200Y020487D02*
X020000Y018687D01*
X020000Y012547D01*
X018767Y011314D01*
X018628Y011454D02*
X019800Y012626D01*
X019800Y017887D01*
X018200Y019487D01*
X017200Y019487D02*
X015700Y017987D01*
X015700Y012182D01*
X016150Y011732D01*
X016011Y011593D02*
X015500Y012104D01*
X015500Y018787D01*
X017200Y020487D01*
X017200Y021487D02*
X015300Y019587D01*
X015300Y012026D01*
X015872Y011454D01*
X015733Y011314D02*
X015100Y011947D01*
X015100Y020387D01*
X017200Y022487D01*
X017200Y023487D02*
X014900Y021187D01*
X014900Y011869D01*
X015594Y011175D01*
X015454Y011036D02*
X014700Y011790D01*
X014700Y021987D01*
X017200Y024487D01*
X017200Y025487D02*
X014500Y022787D01*
X014500Y011712D01*
X015315Y010897D01*
X015594Y009811D02*
X014700Y008918D01*
X014700Y003087D01*
X013100Y001487D01*
X014100Y001487D02*
X014100Y001537D01*
X014900Y002337D01*
X014900Y008839D01*
X015733Y009672D01*
X015872Y009533D02*
X015100Y008761D01*
X015100Y001487D01*
X015300Y002287D02*
X016100Y001487D01*
X015300Y002287D02*
X015300Y008682D01*
X016011Y009394D01*
X016150Y009254D02*
X015500Y008604D01*
X015500Y003037D01*
X017050Y001487D01*
X017100Y001487D01*
X018050Y001487D02*
X018100Y001487D01*
X018050Y001487D02*
X015700Y003837D01*
X015700Y008526D01*
X016290Y009115D01*
X016429Y008976D02*
X016000Y008547D01*
X016000Y007637D01*
X016200Y007887D02*
X016400Y007687D01*
X016400Y007487D01*
X016200Y007287D01*
X016350Y006887D02*
X016600Y007137D01*
X016600Y007837D01*
X016500Y007937D01*
X016500Y008490D01*
X016707Y008698D01*
X016568Y008837D02*
X016200Y008469D01*
X016200Y007887D01*
X016350Y006887D02*
X016000Y006887D01*
X013150Y011121D02*
X013050Y011121D01*
X013685Y013571D02*
X013700Y013587D01*
X013180Y015621D02*
X013050Y015621D01*
X013700Y016887D02*
X013694Y016893D01*
X013465Y018421D02*
X013300Y018421D01*
X015900Y017187D02*
X017200Y018487D01*
X017200Y017487D02*
X016100Y016387D01*
X016100Y012339D01*
X016429Y012010D01*
X016290Y011871D02*
X015900Y012261D01*
X015900Y017187D01*
X017200Y016487D02*
X016300Y015587D01*
X016300Y012418D01*
X016568Y012150D01*
X016707Y012289D02*
X016500Y012496D01*
X016500Y014787D01*
X017200Y015487D01*
X017200Y014487D02*
X016700Y013987D01*
X016700Y012574D01*
X016846Y012428D01*
X017200Y012882D02*
X017200Y013487D01*
X017200Y012882D02*
X017654Y012428D01*
X017793Y012289D02*
X018200Y012696D01*
X018200Y013487D01*
X018800Y013887D02*
X018800Y013018D01*
X017932Y012150D01*
X018071Y012010D02*
X019000Y012939D01*
X019000Y014687D01*
X018200Y015487D01*
X018200Y014487D02*
X018800Y013887D01*
X019200Y012861D02*
X019200Y015487D01*
X018200Y016487D01*
X018200Y017487D02*
X019400Y016287D01*
X019400Y012782D01*
X018350Y011732D01*
X018489Y011593D02*
X019600Y012704D01*
X019600Y017087D01*
X018200Y018487D01*
X019200Y012861D02*
X018210Y011871D01*
D25*
X017251Y010502D03*
D26*
X018760Y007897D02*
X018760Y007307D01*
X020050Y011087D02*
X021400Y011087D01*
X014400Y007637D02*
X014390Y007627D01*
X005540Y007627D01*
X005330Y008167D02*
X004950Y007787D01*
X004950Y006337D01*
X003250Y004637D01*
X002100Y004637D01*
X002100Y005637D02*
X003050Y005637D01*
X004200Y006787D01*
X004200Y007637D01*
X005250Y008687D01*
X005520Y008687D01*
X005540Y008707D01*
X005120Y009257D02*
X002500Y006637D01*
X002100Y006637D01*
X002100Y007887D02*
X002950Y007887D01*
X004860Y009797D01*
X005540Y009797D01*
X005120Y009257D02*
X006660Y009257D01*
X006660Y008167D02*
X005330Y008167D01*
X004350Y010337D02*
X002900Y008887D01*
X002100Y008887D01*
X002100Y009887D02*
X002900Y009887D01*
X003900Y010887D01*
X005540Y010887D01*
X005460Y011887D02*
X005540Y011967D01*
X005460Y011887D02*
X002100Y011887D01*
X002100Y010887D02*
X002800Y010887D01*
X003340Y011427D01*
X006660Y011427D01*
X006660Y012517D02*
X003570Y012517D01*
X003200Y012887D01*
X002100Y012887D01*
X002100Y013887D02*
X003450Y013887D01*
X004280Y013057D01*
X005540Y013057D01*
X005540Y014147D02*
X004340Y014147D01*
X003600Y014887D01*
X002100Y014887D01*
X002100Y015887D02*
X003750Y015887D01*
X004410Y015227D01*
X005540Y015227D01*
X005540Y016317D02*
X004520Y016317D01*
X003950Y016887D01*
X002100Y016887D01*
X002100Y018387D02*
X003750Y018387D01*
X004730Y017407D01*
X005540Y017407D01*
X004250Y019387D02*
X002100Y019387D01*
X002100Y020387D02*
X004150Y020387D01*
X005520Y021757D01*
X005540Y021757D01*
X004600Y021887D02*
X002100Y021887D01*
X002100Y022887D02*
X004500Y022887D01*
X005000Y023387D01*
X006660Y023387D01*
X006660Y024467D02*
X006240Y024887D01*
X002100Y024887D01*
X002100Y023887D02*
X005500Y023887D01*
X005540Y023927D01*
X005540Y022837D02*
X005540Y022827D01*
X004600Y021887D01*
X005530Y020667D02*
X004250Y019387D01*
X005530Y020667D02*
X005540Y020667D01*
X006660Y021207D02*
X006680Y021187D01*
X006700Y021187D01*
X008265Y022752D02*
X008350Y022752D01*
X010700Y019337D02*
X012350Y020987D01*
X010700Y019337D02*
X010700Y017502D01*
X010685Y017487D01*
X011400Y017471D02*
X011415Y017487D01*
X012085Y017487D02*
X012350Y017752D01*
X012350Y018487D01*
X013300Y017752D02*
X012853Y017305D01*
X012853Y016893D01*
X012350Y016389D01*
X012350Y015887D01*
X013050Y015621D02*
X013050Y016381D01*
X013247Y016893D02*
X013694Y016893D01*
X013700Y016887D02*
X013700Y013587D01*
X013700Y012646D01*
X013247Y012193D01*
X012853Y012193D02*
X012853Y012405D01*
X013200Y012902D01*
X013200Y013571D02*
X013685Y013571D01*
X013200Y014887D02*
X013180Y014952D01*
X013200Y014887D02*
X012350Y014887D01*
X013700Y016887D02*
X013700Y018187D01*
X013465Y018421D01*
X009400Y014887D02*
X009350Y014887D01*
X009320Y014857D01*
X012350Y011689D02*
X012350Y011387D01*
X012350Y011689D02*
X012853Y012193D01*
X013050Y011681D02*
X013050Y011121D01*
X013150Y010452D02*
X013150Y010387D01*
X012350Y010387D01*
X011600Y007237D02*
X010775Y006412D01*
X010350Y006837D01*
X009400Y006837D01*
X011600Y007237D02*
X014150Y007237D01*
X012900Y005720D02*
X012900Y003837D01*
X011900Y003837D01*
X011900Y003337D01*
X011900Y003837D02*
X011900Y005770D01*
X012900Y003837D02*
X013700Y003837D01*
X013900Y004037D01*
X013900Y005670D01*
X009338Y003163D02*
X009338Y002448D01*
X009400Y002387D01*
X009338Y003163D02*
X008905Y003163D01*
X008600Y003467D01*
X008600Y004057D02*
X006660Y005997D01*
X008600Y004106D02*
X008600Y004057D01*
X007988Y003125D02*
X007975Y003112D01*
X006660Y010337D02*
X004350Y010337D01*
D27*
X006660Y013597D02*
X007340Y013597D01*
X007900Y013037D01*
X007900Y009837D01*
X009350Y008387D01*
X010450Y009487D01*
X010450Y011887D01*
X010350Y012787D02*
X009350Y011787D01*
X009350Y011387D01*
X009350Y010387D01*
X008600Y010137D02*
X009350Y009387D01*
X008600Y010137D02*
X008600Y013537D01*
X007450Y014687D01*
X006660Y014687D01*
X007050Y015387D02*
X007850Y015387D01*
X009350Y013887D01*
X009350Y014887D02*
X009350Y015887D01*
X008430Y015887D01*
X007460Y016857D01*
X006660Y016857D01*
X006660Y015777D02*
X007050Y015387D01*
X008220Y017487D02*
X007760Y017947D01*
X006660Y017947D01*
X007110Y018497D02*
X007170Y018487D01*
X009350Y018487D01*
X010015Y017487D02*
X008220Y017487D01*
X007110Y018497D02*
X005540Y018497D01*
X005540Y019577D02*
X007140Y019577D01*
X008550Y020987D01*
X009350Y020987D01*
X009350Y021987D02*
X008520Y021987D01*
X006660Y020127D01*
X006700Y021187D02*
X008265Y022752D01*
X008350Y023421D02*
X008665Y023737D01*
X009350Y023737D01*
X009350Y024737D02*
X008450Y024737D01*
X007650Y023937D01*
X007650Y023287D01*
X006660Y022297D01*
X008350Y019487D02*
X009350Y019487D01*
X008350Y019487D02*
X007900Y019037D01*
X006660Y019037D01*
X010015Y017487D02*
X010015Y017121D01*
X010200Y016937D01*
X011200Y016937D01*
X011400Y017137D01*
X011400Y017471D01*
X011415Y017487D02*
X011415Y019452D01*
X012200Y020237D01*
X013300Y020237D01*
X013600Y020537D01*
X013600Y021237D01*
X013600Y022237D02*
X013000Y022837D01*
X012100Y022837D01*
X011500Y023437D01*
X011500Y026287D01*
X012350Y027137D01*
X013100Y027887D01*
X013400Y027887D01*
X014400Y027887D02*
X014400Y026987D01*
X013100Y025687D01*
X013100Y024487D01*
X012350Y023737D01*
X012356Y023731D01*
X017250Y026587D02*
X017875Y027212D01*
X009400Y014887D02*
X010350Y013937D01*
X010350Y012787D01*
X007310Y007077D02*
X006660Y007077D01*
X007310Y007077D02*
X008550Y005837D01*
X009400Y005837D01*
X009400Y004837D02*
X009400Y003911D01*
X009338Y003911D01*
X009338Y003163D02*
X009338Y003125D01*
X010358Y003911D02*
X010776Y003911D01*
X011350Y003337D01*
X011900Y003337D01*
X017471Y006716D02*
X017800Y006387D01*
X017800Y006087D01*
X017471Y006716D02*
X017471Y007817D01*
X018100Y007787D02*
X018100Y007137D01*
X018750Y006487D01*
X018750Y005037D01*
X017800Y004087D01*
D28*
X018760Y007307D03*
X014120Y013887D03*
X010450Y011887D03*
D29*
X006660Y004907D02*
X005540Y005447D01*
X006660Y004907D02*
X006650Y004437D01*
X007975Y003112D01*
X008700Y002387D01*
X009400Y002387D01*
X011100Y002387D01*
X012100Y002387D01*
X012900Y003187D01*
X012900Y003337D01*
X012900Y003287D01*
X017800Y004087D02*
X019600Y004087D01*
X021400Y005887D01*
X021400Y011087D01*
X021400Y023687D01*
X019950Y025137D01*
X017875Y027212D01*
X017200Y027887D01*
X014400Y027887D01*
X018200Y024487D02*
X019300Y024487D01*
X019950Y025137D01*
D30*
X020050Y011087D02*
X020037Y011073D01*
X012100Y002387D02*
X012100Y001487D01*
X011100Y001487D02*
X011100Y002387D01*
D31*
X017950Y007987D02*
X018200Y007987D01*
X018200Y008587D01*
X018100Y008687D01*
X017950Y008487D01*
X017950Y007987D01*
X018109Y007817D02*
X018000Y008537D01*
X018250Y008837D02*
X018600Y008437D01*
X018800Y008537D01*
X018350Y008937D01*
X018250Y008837D01*
X018380Y008907D02*
X018760Y008536D01*
D32*
X018768Y008521D02*
X018527Y008521D01*
X018527Y008520D02*
X018766Y008520D01*
X018764Y008519D02*
X018528Y008519D01*
X018529Y008518D02*
X018762Y008518D01*
X018760Y008517D02*
X018530Y008517D01*
X018531Y008516D02*
X018758Y008516D01*
X018756Y008515D02*
X018532Y008515D01*
X018533Y008514D02*
X018754Y008514D01*
X018752Y008513D02*
X018534Y008513D01*
X018534Y008512D02*
X018750Y008512D01*
X018748Y008511D02*
X018535Y008511D01*
X018536Y008510D02*
X018746Y008510D01*
X018744Y008509D02*
X018537Y008509D01*
X018538Y008508D02*
X018742Y008508D01*
X018740Y008507D02*
X018539Y008507D01*
X018540Y008506D02*
X018738Y008506D01*
X018736Y008505D02*
X018540Y008505D01*
X018541Y008504D02*
X018734Y008504D01*
X018732Y008503D02*
X018542Y008503D01*
X018543Y008502D02*
X018730Y008502D01*
X018728Y008501D02*
X018544Y008501D01*
X018545Y008500D02*
X018726Y008500D01*
X018724Y008499D02*
X018546Y008499D01*
X018547Y008498D02*
X018722Y008498D01*
X018720Y008497D02*
X018547Y008497D01*
X018548Y008496D02*
X018718Y008496D01*
X018716Y008495D02*
X018549Y008495D01*
X018550Y008494D02*
X018714Y008494D01*
X018712Y008493D02*
X018551Y008493D01*
X018552Y008492D02*
X018710Y008492D01*
X018708Y008491D02*
X018553Y008491D01*
X018554Y008490D02*
X018706Y008490D01*
X018704Y008489D02*
X018554Y008489D01*
X018555Y008488D02*
X018702Y008488D01*
X018700Y008487D02*
X018556Y008487D01*
X018557Y008486D02*
X018698Y008486D01*
X018696Y008485D02*
X018558Y008485D01*
X018559Y008484D02*
X018694Y008484D01*
X018692Y008483D02*
X018560Y008483D01*
X018561Y008482D02*
X018690Y008482D01*
X018688Y008481D02*
X018561Y008481D01*
X018562Y008480D02*
X018686Y008480D01*
X018684Y008479D02*
X018563Y008479D01*
X018564Y008478D02*
X018682Y008478D01*
X018680Y008477D02*
X018565Y008477D01*
X018566Y008476D02*
X018678Y008476D01*
X018676Y008475D02*
X018567Y008475D01*
X018568Y008474D02*
X018674Y008474D01*
X018672Y008473D02*
X018568Y008473D01*
X018569Y008472D02*
X018670Y008472D01*
X018668Y008471D02*
X018570Y008471D01*
X018571Y008470D02*
X018666Y008470D01*
X018664Y008469D02*
X018572Y008469D01*
X018573Y008468D02*
X018662Y008468D01*
X018660Y008467D02*
X018574Y008467D01*
X018575Y008466D02*
X018658Y008466D01*
X018656Y008465D02*
X018575Y008465D01*
X018576Y008464D02*
X018654Y008464D01*
X018652Y008463D02*
X018577Y008463D01*
X018578Y008462D02*
X018650Y008462D01*
X018648Y008461D02*
X018579Y008461D01*
X018580Y008460D02*
X018646Y008460D01*
X018644Y008459D02*
X018581Y008459D01*
X018582Y008458D02*
X018642Y008458D01*
X018640Y008457D02*
X018582Y008457D01*
X018583Y008456D02*
X018638Y008456D01*
X018636Y008455D02*
X018584Y008455D01*
X018585Y008454D02*
X018634Y008454D01*
X018632Y008453D02*
X018586Y008453D01*
X018587Y008452D02*
X018630Y008452D01*
X018628Y008451D02*
X018588Y008451D01*
X018589Y008450D02*
X018626Y008450D01*
X018624Y008449D02*
X018589Y008449D01*
X018590Y008448D02*
X018622Y008448D01*
X018620Y008447D02*
X018591Y008447D01*
X018592Y008446D02*
X018618Y008446D01*
X018616Y008445D02*
X018593Y008445D01*
X018594Y008444D02*
X018614Y008444D01*
X018612Y008443D02*
X018595Y008443D01*
X018596Y008442D02*
X018610Y008442D01*
X018608Y008441D02*
X018596Y008441D01*
X018597Y008440D02*
X018606Y008440D01*
X018604Y008439D02*
X018598Y008439D01*
X018599Y008438D02*
X018602Y008438D01*
X018600Y008437D02*
X018600Y008437D01*
X018526Y008522D02*
X018770Y008522D01*
X018772Y008523D02*
X018525Y008523D01*
X018524Y008524D02*
X018774Y008524D01*
X018776Y008525D02*
X018523Y008525D01*
X018522Y008526D02*
X018778Y008526D01*
X018780Y008527D02*
X018521Y008527D01*
X018520Y008528D02*
X018782Y008528D01*
X018784Y008529D02*
X018520Y008529D01*
X018519Y008530D02*
X018786Y008530D01*
X018788Y008531D02*
X018518Y008531D01*
X018517Y008532D02*
X018790Y008532D01*
X018792Y008533D02*
X018516Y008533D01*
X018515Y008534D02*
X018794Y008534D01*
X018796Y008535D02*
X018514Y008535D01*
X018513Y008536D02*
X018798Y008536D01*
X018799Y008538D02*
X018512Y008538D01*
X018511Y008539D02*
X018798Y008539D01*
X018797Y008540D02*
X018510Y008540D01*
X018509Y008541D02*
X018796Y008541D01*
X018794Y008542D02*
X018508Y008542D01*
X018507Y008543D02*
X018793Y008543D01*
X018792Y008544D02*
X018506Y008544D01*
X018506Y008545D02*
X018791Y008545D01*
X018790Y008546D02*
X018505Y008546D01*
X018504Y008547D02*
X018789Y008547D01*
X018788Y008548D02*
X018503Y008548D01*
X018502Y008549D02*
X018787Y008549D01*
X018785Y008550D02*
X018501Y008550D01*
X018500Y008551D02*
X018784Y008551D01*
X018783Y008552D02*
X018499Y008552D01*
X018499Y008553D02*
X018782Y008553D01*
X018781Y008554D02*
X018498Y008554D01*
X018497Y008555D02*
X018780Y008555D01*
X018779Y008556D02*
X018496Y008556D01*
X018495Y008557D02*
X018778Y008557D01*
X018776Y008558D02*
X018494Y008558D01*
X018493Y008559D02*
X018775Y008559D01*
X018774Y008560D02*
X018492Y008560D01*
X018492Y008561D02*
X018773Y008561D01*
X018772Y008562D02*
X018491Y008562D01*
X018490Y008563D02*
X018771Y008563D01*
X018770Y008564D02*
X018489Y008564D01*
X018488Y008565D02*
X018769Y008565D01*
X018767Y008566D02*
X018487Y008566D01*
X018486Y008567D02*
X018766Y008567D01*
X018765Y008568D02*
X018485Y008568D01*
X018485Y008569D02*
X018764Y008569D01*
X018763Y008570D02*
X018484Y008570D01*
X018483Y008571D02*
X018762Y008571D01*
X018761Y008572D02*
X018482Y008572D01*
X018481Y008573D02*
X018760Y008573D01*
X018758Y008574D02*
X018480Y008574D01*
X018479Y008575D02*
X018757Y008575D01*
X018756Y008576D02*
X018478Y008576D01*
X018478Y008577D02*
X018755Y008577D01*
X018754Y008578D02*
X018477Y008578D01*
X018476Y008579D02*
X018753Y008579D01*
X018752Y008580D02*
X018475Y008580D01*
X018474Y008581D02*
X018751Y008581D01*
X018749Y008582D02*
X018473Y008582D01*
X018472Y008583D02*
X018748Y008583D01*
X018747Y008584D02*
X018471Y008584D01*
X018471Y008585D02*
X018746Y008585D01*
X018745Y008586D02*
X018470Y008586D01*
X018469Y008587D02*
X018744Y008587D01*
X018743Y008588D02*
X018468Y008588D01*
X018467Y008589D02*
X018742Y008589D01*
X018740Y008590D02*
X018466Y008590D01*
X018465Y008591D02*
X018739Y008591D01*
X018738Y008592D02*
X018464Y008592D01*
X018464Y008593D02*
X018737Y008593D01*
X018736Y008594D02*
X018463Y008594D01*
X018462Y008595D02*
X018735Y008595D01*
X018734Y008596D02*
X018461Y008596D01*
X018460Y008597D02*
X018733Y008597D01*
X018731Y008598D02*
X018459Y008598D01*
X018458Y008599D02*
X018730Y008599D01*
X018729Y008600D02*
X018457Y008600D01*
X018457Y008601D02*
X018728Y008601D01*
X018727Y008602D02*
X018456Y008602D01*
X018455Y008603D02*
X018726Y008603D01*
X018725Y008604D02*
X018454Y008604D01*
X018453Y008605D02*
X018724Y008605D01*
X018722Y008606D02*
X018452Y008606D01*
X018451Y008607D02*
X018721Y008607D01*
X018720Y008608D02*
X018450Y008608D01*
X018450Y008609D02*
X018719Y008609D01*
X018718Y008610D02*
X018449Y008610D01*
X018448Y008611D02*
X018717Y008611D01*
X018716Y008612D02*
X018447Y008612D01*
X018446Y008613D02*
X018715Y008613D01*
X018713Y008614D02*
X018445Y008614D01*
X018444Y008615D02*
X018712Y008615D01*
X018711Y008616D02*
X018443Y008616D01*
X018443Y008617D02*
X018710Y008617D01*
X018709Y008618D02*
X018442Y008618D01*
X018441Y008619D02*
X018708Y008619D01*
X018707Y008620D02*
X018440Y008620D01*
X018439Y008621D02*
X018706Y008621D01*
X018705Y008622D02*
X018438Y008622D01*
X018437Y008623D02*
X018703Y008623D01*
X018702Y008624D02*
X018436Y008624D01*
X018436Y008625D02*
X018701Y008625D01*
X018700Y008626D02*
X018435Y008626D01*
X018434Y008627D02*
X018699Y008627D01*
X018698Y008628D02*
X018433Y008628D01*
X018432Y008629D02*
X018697Y008629D01*
X018696Y008630D02*
X018431Y008630D01*
X018430Y008631D02*
X018694Y008631D01*
X018693Y008632D02*
X018429Y008632D01*
X018429Y008633D02*
X018692Y008633D01*
X018691Y008634D02*
X018428Y008634D01*
X018427Y008635D02*
X018690Y008635D01*
X018689Y008636D02*
X018426Y008636D01*
X018425Y008637D02*
X018688Y008637D01*
X018687Y008638D02*
X018424Y008638D01*
X018423Y008639D02*
X018685Y008639D01*
X018684Y008640D02*
X018422Y008640D01*
X018422Y008641D02*
X018683Y008641D01*
X018682Y008642D02*
X018421Y008642D01*
X018420Y008643D02*
X018681Y008643D01*
X018680Y008644D02*
X018419Y008644D01*
X018418Y008645D02*
X018679Y008645D01*
X018678Y008646D02*
X018417Y008646D01*
X018416Y008647D02*
X018676Y008647D01*
X018675Y008648D02*
X018415Y008648D01*
X018415Y008649D02*
X018674Y008649D01*
X018673Y008650D02*
X018414Y008650D01*
X018413Y008651D02*
X018672Y008651D01*
X018671Y008652D02*
X018412Y008652D01*
X018411Y008653D02*
X018670Y008653D01*
X018669Y008654D02*
X018410Y008654D01*
X018409Y008655D02*
X018667Y008655D01*
X018666Y008656D02*
X018409Y008656D01*
X018408Y008657D02*
X018665Y008657D01*
X018664Y008658D02*
X018407Y008658D01*
X018406Y008659D02*
X018663Y008659D01*
X018662Y008660D02*
X018405Y008660D01*
X018404Y008661D02*
X018661Y008661D01*
X018660Y008662D02*
X018403Y008662D01*
X018402Y008663D02*
X018658Y008663D01*
X018657Y008664D02*
X018402Y008664D01*
X018401Y008665D02*
X018656Y008665D01*
X018655Y008666D02*
X018400Y008666D01*
X018399Y008667D02*
X018654Y008667D01*
X018653Y008668D02*
X018398Y008668D01*
X018397Y008669D02*
X018652Y008669D01*
X018651Y008670D02*
X018396Y008670D01*
X018395Y008671D02*
X018649Y008671D01*
X018648Y008672D02*
X018395Y008672D01*
X018394Y008673D02*
X018647Y008673D01*
X018646Y008674D02*
X018393Y008674D01*
X018392Y008675D02*
X018645Y008675D01*
X018644Y008675D02*
X018391Y008675D01*
X018390Y008676D02*
X018643Y008676D01*
X018642Y008677D02*
X018389Y008677D01*
X018388Y008678D02*
X018640Y008678D01*
X018639Y008679D02*
X018388Y008679D01*
X018387Y008680D02*
X018638Y008680D01*
X018637Y008681D02*
X018386Y008681D01*
X018385Y008682D02*
X018636Y008682D01*
X018635Y008683D02*
X018384Y008683D01*
X018383Y008684D02*
X018634Y008684D01*
X018633Y008685D02*
X018382Y008685D01*
X018381Y008686D02*
X018631Y008686D01*
X018630Y008687D02*
X018381Y008687D01*
X018380Y008688D02*
X018629Y008688D01*
X018628Y008689D02*
X018379Y008689D01*
X018378Y008690D02*
X018627Y008690D01*
X018626Y008691D02*
X018377Y008691D01*
X018376Y008692D02*
X018625Y008692D01*
X018624Y008693D02*
X018375Y008693D01*
X018374Y008694D02*
X018622Y008694D01*
X018621Y008695D02*
X018374Y008695D01*
X018373Y008696D02*
X018620Y008696D01*
X018619Y008697D02*
X018372Y008697D01*
X018371Y008698D02*
X018618Y008698D01*
X018617Y008699D02*
X018370Y008699D01*
X018369Y008700D02*
X018616Y008700D01*
X018615Y008701D02*
X018368Y008701D01*
X018367Y008702D02*
X018613Y008702D01*
X018612Y008703D02*
X018367Y008703D01*
X018366Y008704D02*
X018611Y008704D01*
X018610Y008705D02*
X018365Y008705D01*
X018364Y008706D02*
X018609Y008706D01*
X018608Y008707D02*
X018363Y008707D01*
X018362Y008708D02*
X018607Y008708D01*
X018606Y008709D02*
X018361Y008709D01*
X018360Y008710D02*
X018604Y008710D01*
X018603Y008711D02*
X018360Y008711D01*
X018359Y008712D02*
X018602Y008712D01*
X018601Y008713D02*
X018358Y008713D01*
X018357Y008714D02*
X018600Y008714D01*
X018599Y008715D02*
X018356Y008715D01*
X018355Y008716D02*
X018598Y008716D01*
X018597Y008717D02*
X018354Y008717D01*
X018353Y008718D02*
X018595Y008718D01*
X018594Y008719D02*
X018353Y008719D01*
X018352Y008720D02*
X018593Y008720D01*
X018592Y008721D02*
X018351Y008721D01*
X018350Y008722D02*
X018591Y008722D01*
X018590Y008723D02*
X018349Y008723D01*
X018348Y008724D02*
X018589Y008724D01*
X018588Y008725D02*
X018347Y008725D01*
X018346Y008726D02*
X018586Y008726D01*
X018585Y008727D02*
X018346Y008727D01*
X018345Y008728D02*
X018584Y008728D01*
X018583Y008729D02*
X018344Y008729D01*
X018343Y008730D02*
X018582Y008730D01*
X018581Y008731D02*
X018342Y008731D01*
X018341Y008732D02*
X018580Y008732D01*
X018579Y008733D02*
X018340Y008733D01*
X018339Y008734D02*
X018578Y008734D01*
X018576Y008735D02*
X018339Y008735D01*
X018338Y008736D02*
X018575Y008736D01*
X018574Y008737D02*
X018337Y008737D01*
X018336Y008738D02*
X018573Y008738D01*
X018572Y008739D02*
X018335Y008739D01*
X018334Y008740D02*
X018571Y008740D01*
X018570Y008741D02*
X018333Y008741D01*
X018332Y008742D02*
X018569Y008742D01*
X018567Y008743D02*
X018332Y008743D01*
X018331Y008744D02*
X018566Y008744D01*
X018565Y008745D02*
X018330Y008745D01*
X018329Y008746D02*
X018564Y008746D01*
X018563Y008747D02*
X018328Y008747D01*
X018327Y008748D02*
X018562Y008748D01*
X018561Y008749D02*
X018326Y008749D01*
X018325Y008750D02*
X018560Y008750D01*
X018558Y008751D02*
X018325Y008751D01*
X018324Y008752D02*
X018557Y008752D01*
X018556Y008753D02*
X018323Y008753D01*
X018322Y008754D02*
X018555Y008754D01*
X018554Y008755D02*
X018321Y008755D01*
X018320Y008756D02*
X018553Y008756D01*
X018552Y008757D02*
X018319Y008757D01*
X018318Y008758D02*
X018551Y008758D01*
X018549Y008759D02*
X018318Y008759D01*
X018317Y008760D02*
X018548Y008760D01*
X018547Y008761D02*
X018316Y008761D01*
X018315Y008762D02*
X018546Y008762D01*
X018545Y008763D02*
X018314Y008763D01*
X018313Y008764D02*
X018544Y008764D01*
X018543Y008765D02*
X018312Y008765D01*
X018311Y008766D02*
X018542Y008766D01*
X018540Y008767D02*
X018311Y008767D01*
X018310Y008768D02*
X018539Y008768D01*
X018538Y008769D02*
X018309Y008769D01*
X018308Y008770D02*
X018537Y008770D01*
X018536Y008771D02*
X018307Y008771D01*
X018306Y008772D02*
X018535Y008772D01*
X018534Y008773D02*
X018305Y008773D01*
X018304Y008774D02*
X018533Y008774D01*
X018531Y008775D02*
X018304Y008775D01*
X018303Y008776D02*
X018530Y008776D01*
X018529Y008777D02*
X018302Y008777D01*
X018301Y008778D02*
X018528Y008778D01*
X018527Y008779D02*
X018300Y008779D01*
X018299Y008780D02*
X018526Y008780D01*
X018525Y008781D02*
X018298Y008781D01*
X018297Y008782D02*
X018524Y008782D01*
X018522Y008783D02*
X018297Y008783D01*
X018296Y008784D02*
X018521Y008784D01*
X018520Y008785D02*
X018295Y008785D01*
X018294Y008786D02*
X018519Y008786D01*
X018518Y008787D02*
X018293Y008787D01*
X018292Y008788D02*
X018517Y008788D01*
X018516Y008789D02*
X018291Y008789D01*
X018290Y008790D02*
X018515Y008790D01*
X018513Y008791D02*
X018290Y008791D01*
X018289Y008792D02*
X018512Y008792D01*
X018511Y008793D02*
X018288Y008793D01*
X018287Y008794D02*
X018510Y008794D01*
X018509Y008795D02*
X018286Y008795D01*
X018285Y008796D02*
X018508Y008796D01*
X018507Y008797D02*
X018284Y008797D01*
X018284Y008798D02*
X018506Y008798D01*
X018504Y008799D02*
X018283Y008799D01*
X018282Y008800D02*
X018503Y008800D01*
X018502Y008801D02*
X018281Y008801D01*
X018280Y008802D02*
X018501Y008802D01*
X018500Y008803D02*
X018279Y008803D01*
X018278Y008804D02*
X018499Y008804D01*
X018498Y008805D02*
X018277Y008805D01*
X018277Y008806D02*
X018497Y008806D01*
X018495Y008807D02*
X018276Y008807D01*
X018275Y008808D02*
X018494Y008808D01*
X018493Y008809D02*
X018274Y008809D01*
X018273Y008810D02*
X018492Y008810D01*
X018491Y008811D02*
X018272Y008811D01*
X018271Y008812D02*
X018490Y008812D01*
X018489Y008813D02*
X018270Y008813D01*
X018270Y008814D02*
X018488Y008814D01*
X018486Y008815D02*
X018269Y008815D01*
X018268Y008816D02*
X018485Y008816D01*
X018484Y008817D02*
X018267Y008817D01*
X018266Y008818D02*
X018483Y008818D01*
X018482Y008819D02*
X018265Y008819D01*
X018264Y008820D02*
X018481Y008820D01*
X018480Y008821D02*
X018263Y008821D01*
X018263Y008822D02*
X018479Y008822D01*
X018477Y008823D02*
X018262Y008823D01*
X018261Y008824D02*
X018476Y008824D01*
X018475Y008825D02*
X018260Y008825D01*
X018259Y008826D02*
X018474Y008826D01*
X018473Y008827D02*
X018258Y008827D01*
X018257Y008828D02*
X018472Y008828D01*
X018471Y008829D02*
X018256Y008829D01*
X018256Y008830D02*
X018470Y008830D01*
X018468Y008831D02*
X018255Y008831D01*
X018254Y008832D02*
X018467Y008832D01*
X018466Y008833D02*
X018253Y008833D01*
X018252Y008834D02*
X018465Y008834D01*
X018464Y008835D02*
X018251Y008835D01*
X018250Y008836D02*
X018463Y008836D01*
X018462Y008837D02*
X018251Y008837D01*
X018252Y008838D02*
X018461Y008838D01*
X018459Y008839D02*
X018253Y008839D01*
X018254Y008840D02*
X018458Y008840D01*
X018457Y008841D02*
X018255Y008841D01*
X018256Y008842D02*
X018456Y008842D01*
X018455Y008843D02*
X018257Y008843D01*
X018258Y008844D02*
X018454Y008844D01*
X018453Y008845D02*
X018259Y008845D01*
X018260Y008846D02*
X018452Y008846D01*
X018451Y008847D02*
X018261Y008847D01*
X018262Y008848D02*
X018449Y008848D01*
X018448Y008849D02*
X018263Y008849D01*
X018264Y008850D02*
X018447Y008850D01*
X018446Y008851D02*
X018265Y008851D01*
X018266Y008852D02*
X018445Y008852D01*
X018444Y008853D02*
X018267Y008853D01*
X018268Y008854D02*
X018443Y008854D01*
X018442Y008855D02*
X018269Y008855D01*
X018270Y008856D02*
X018440Y008856D01*
X018439Y008857D02*
X018271Y008857D01*
X018272Y008858D02*
X018438Y008858D01*
X018437Y008859D02*
X018273Y008859D01*
X018274Y008860D02*
X018436Y008860D01*
X018435Y008861D02*
X018275Y008861D01*
X018276Y008862D02*
X018434Y008862D01*
X018433Y008863D02*
X018277Y008863D01*
X018278Y008864D02*
X018431Y008864D01*
X018430Y008865D02*
X018279Y008865D01*
X018280Y008866D02*
X018429Y008866D01*
X018428Y008867D02*
X018281Y008867D01*
X018282Y008868D02*
X018427Y008868D01*
X018426Y008869D02*
X018283Y008869D01*
X018284Y008870D02*
X018425Y008870D01*
X018424Y008871D02*
X018285Y008871D01*
X018286Y008872D02*
X018422Y008872D01*
X018421Y008873D02*
X018287Y008873D01*
X018288Y008874D02*
X018420Y008874D01*
X018419Y008875D02*
X018289Y008875D01*
X018290Y008876D02*
X018418Y008876D01*
X018417Y008877D02*
X018291Y008877D01*
X018292Y008878D02*
X018416Y008878D01*
X018415Y008879D02*
X018293Y008879D01*
X018294Y008880D02*
X018413Y008880D01*
X018412Y008881D02*
X018295Y008881D01*
X018296Y008882D02*
X018411Y008882D01*
X018410Y008883D02*
X018297Y008883D01*
X018298Y008884D02*
X018409Y008884D01*
X018408Y008885D02*
X018299Y008885D01*
X018300Y008886D02*
X018407Y008886D01*
X018406Y008887D02*
X018301Y008887D01*
X018302Y008888D02*
X018404Y008888D01*
X018403Y008889D02*
X018303Y008889D01*
X018304Y008890D02*
X018402Y008890D01*
X018401Y008891D02*
X018305Y008891D01*
X018306Y008892D02*
X018400Y008892D01*
X018399Y008893D02*
X018307Y008893D01*
X018308Y008894D02*
X018398Y008894D01*
X018397Y008895D02*
X018309Y008895D01*
X018310Y008896D02*
X018395Y008896D01*
X018394Y008897D02*
X018311Y008897D01*
X018312Y008898D02*
X018393Y008898D01*
X018392Y008899D02*
X018313Y008899D01*
X018314Y008900D02*
X018391Y008900D01*
X018390Y008901D02*
X018315Y008901D01*
X018316Y008902D02*
X018389Y008902D01*
X018388Y008903D02*
X018317Y008903D01*
X018318Y008904D02*
X018386Y008904D01*
X018385Y008905D02*
X018319Y008905D01*
X018320Y008906D02*
X018384Y008906D01*
X018383Y008907D02*
X018321Y008907D01*
X018322Y008908D02*
X018382Y008908D01*
X018381Y008909D02*
X018323Y008909D01*
X018324Y008910D02*
X018380Y008910D01*
X018379Y008911D02*
X018325Y008911D01*
X018326Y008912D02*
X018377Y008912D01*
X018376Y008913D02*
X018327Y008913D01*
X018328Y008914D02*
X018375Y008914D01*
X018374Y008915D02*
X018329Y008915D01*
X018330Y008916D02*
X018373Y008916D01*
X018372Y008917D02*
X018331Y008917D01*
X018332Y008918D02*
X018371Y008918D01*
X018370Y008919D02*
X018333Y008919D01*
X018334Y008920D02*
X018368Y008920D01*
X018367Y008921D02*
X018335Y008921D01*
X018336Y008922D02*
X018366Y008922D01*
X018365Y008923D02*
X018337Y008923D01*
X018338Y008924D02*
X018364Y008924D01*
X018363Y008925D02*
X018339Y008925D01*
X018340Y008926D02*
X018362Y008926D01*
X018361Y008927D02*
X018341Y008927D01*
X018342Y008928D02*
X018359Y008928D01*
X018358Y008929D02*
X018343Y008929D01*
X018344Y008930D02*
X018357Y008930D01*
X018356Y008931D02*
X018345Y008931D01*
X018346Y008932D02*
X018355Y008932D01*
X018354Y008933D02*
X018347Y008933D01*
X018348Y008934D02*
X018353Y008934D01*
X018352Y008935D02*
X018349Y008935D01*
X018350Y008936D02*
X018350Y008936D01*
X018100Y008686D02*
X018100Y008686D01*
X018099Y008685D02*
X018101Y008685D01*
X018102Y008684D02*
X018098Y008684D01*
X018098Y008683D02*
X018103Y008683D01*
X018104Y008682D02*
X018097Y008682D01*
X018096Y008681D02*
X018105Y008681D01*
X018106Y008680D02*
X018095Y008680D01*
X018095Y008679D02*
X018107Y008679D01*
X018108Y008678D02*
X018094Y008678D01*
X018093Y008677D02*
X018109Y008677D01*
X018110Y008676D02*
X018092Y008676D01*
X018092Y008675D02*
X018111Y008675D01*
X018112Y008675D02*
X018091Y008675D01*
X018090Y008674D02*
X018113Y008674D01*
X018114Y008673D02*
X018089Y008673D01*
X018089Y008672D02*
X018115Y008672D01*
X018116Y008671D02*
X018088Y008671D01*
X018087Y008670D02*
X018117Y008670D01*
X018118Y008669D02*
X018086Y008669D01*
X018086Y008668D02*
X018119Y008668D01*
X018120Y008667D02*
X018085Y008667D01*
X018084Y008666D02*
X018121Y008666D01*
X018122Y008665D02*
X018083Y008665D01*
X018083Y008664D02*
X018123Y008664D01*
X018124Y008663D02*
X018082Y008663D01*
X018081Y008662D02*
X018125Y008662D01*
X018126Y008661D02*
X018080Y008661D01*
X018080Y008660D02*
X018127Y008660D01*
X018128Y008659D02*
X018079Y008659D01*
X018078Y008658D02*
X018129Y008658D01*
X018130Y008657D02*
X018077Y008657D01*
X018077Y008656D02*
X018131Y008656D01*
X018132Y008655D02*
X018076Y008655D01*
X018075Y008654D02*
X018133Y008654D01*
X018134Y008653D02*
X018074Y008653D01*
X018074Y008652D02*
X018135Y008652D01*
X018136Y008651D02*
X018073Y008651D01*
X018072Y008650D02*
X018137Y008650D01*
X018138Y008649D02*
X018071Y008649D01*
X018071Y008648D02*
X018139Y008648D01*
X018140Y008647D02*
X018070Y008647D01*
X018069Y008646D02*
X018141Y008646D01*
X018142Y008645D02*
X018068Y008645D01*
X018068Y008644D02*
X018143Y008644D01*
X018144Y008643D02*
X018067Y008643D01*
X018066Y008642D02*
X018145Y008642D01*
X018146Y008641D02*
X018065Y008641D01*
X018065Y008640D02*
X018147Y008640D01*
X018148Y008639D02*
X018064Y008639D01*
X018063Y008638D02*
X018149Y008638D01*
X018150Y008637D02*
X018062Y008637D01*
X018062Y008636D02*
X018151Y008636D01*
X018152Y008635D02*
X018061Y008635D01*
X018060Y008634D02*
X018153Y008634D01*
X018154Y008633D02*
X018059Y008633D01*
X018059Y008632D02*
X018155Y008632D01*
X018156Y008631D02*
X018058Y008631D01*
X018057Y008630D02*
X018157Y008630D01*
X018158Y008629D02*
X018056Y008629D01*
X018056Y008628D02*
X018159Y008628D01*
X018160Y008627D02*
X018055Y008627D01*
X018054Y008626D02*
X018161Y008626D01*
X018162Y008625D02*
X018053Y008625D01*
X018053Y008624D02*
X018163Y008624D01*
X018164Y008623D02*
X018052Y008623D01*
X018051Y008622D02*
X018165Y008622D01*
X018166Y008621D02*
X018050Y008621D01*
X018050Y008620D02*
X018167Y008620D01*
X018168Y008619D02*
X018049Y008619D01*
X018048Y008618D02*
X018169Y008618D01*
X018170Y008617D02*
X018047Y008617D01*
X018047Y008616D02*
X018171Y008616D01*
X018172Y008615D02*
X018046Y008615D01*
X018045Y008614D02*
X018173Y008614D01*
X018174Y008613D02*
X018044Y008613D01*
X018044Y008612D02*
X018175Y008612D01*
X018176Y008611D02*
X018043Y008611D01*
X018042Y008610D02*
X018177Y008610D01*
X018178Y008609D02*
X018041Y008609D01*
X018041Y008608D02*
X018179Y008608D01*
X018180Y008607D02*
X018040Y008607D01*
X018039Y008606D02*
X018181Y008606D01*
X018182Y008605D02*
X018038Y008605D01*
X018038Y008604D02*
X018183Y008604D01*
X018184Y008603D02*
X018037Y008603D01*
X018036Y008602D02*
X018185Y008602D01*
X018186Y008601D02*
X018035Y008601D01*
X018035Y008600D02*
X018187Y008600D01*
X018188Y008599D02*
X018034Y008599D01*
X018033Y008598D02*
X018189Y008598D01*
X018190Y008597D02*
X018032Y008597D01*
X018032Y008596D02*
X018191Y008596D01*
X018192Y008595D02*
X018031Y008595D01*
X018030Y008594D02*
X018193Y008594D01*
X018194Y008593D02*
X018029Y008593D01*
X018029Y008592D02*
X018195Y008592D01*
X018196Y008591D02*
X018028Y008591D01*
X018027Y008590D02*
X018197Y008590D01*
X018198Y008589D02*
X018026Y008589D01*
X018026Y008588D02*
X018199Y008588D01*
X018200Y008587D02*
X018025Y008587D01*
X018024Y008586D02*
X018200Y008586D01*
X018200Y008585D02*
X018023Y008585D01*
X018023Y008584D02*
X018200Y008584D01*
X018200Y008583D02*
X018022Y008583D01*
X018021Y008582D02*
X018200Y008582D01*
X018200Y008581D02*
X018020Y008581D01*
X018020Y008580D02*
X018200Y008580D01*
X018200Y008579D02*
X018019Y008579D01*
X018018Y008578D02*
X018200Y008578D01*
X018200Y008577D02*
X018017Y008577D01*
X018017Y008576D02*
X018200Y008576D01*
X018200Y008575D02*
X018016Y008575D01*
X018015Y008574D02*
X018200Y008574D01*
X018200Y008573D02*
X018014Y008573D01*
X018014Y008572D02*
X018200Y008572D01*
X018200Y008571D02*
X018013Y008571D01*
X018012Y008570D02*
X018200Y008570D01*
X018200Y008569D02*
X018011Y008569D01*
X018011Y008568D02*
X018200Y008568D01*
X018200Y008567D02*
X018010Y008567D01*
X018009Y008566D02*
X018200Y008566D01*
X018200Y008565D02*
X018008Y008565D01*
X018008Y008564D02*
X018200Y008564D01*
X018200Y008563D02*
X018007Y008563D01*
X018006Y008562D02*
X018200Y008562D01*
X018200Y008561D02*
X018005Y008561D01*
X018005Y008560D02*
X018200Y008560D01*
X018200Y008559D02*
X018004Y008559D01*
X018003Y008558D02*
X018200Y008558D01*
X018200Y008557D02*
X018002Y008557D01*
X018002Y008556D02*
X018200Y008556D01*
X018200Y008555D02*
X018001Y008555D01*
X018000Y008554D02*
X018200Y008554D01*
X018200Y008553D02*
X017999Y008553D01*
X017999Y008552D02*
X018200Y008552D01*
X018200Y008551D02*
X017998Y008551D01*
X017997Y008550D02*
X018200Y008550D01*
X018200Y008549D02*
X017996Y008549D01*
X017996Y008548D02*
X018200Y008548D01*
X018200Y008547D02*
X017995Y008547D01*
X017994Y008546D02*
X018200Y008546D01*
X018200Y008545D02*
X017993Y008545D01*
X017993Y008544D02*
X018200Y008544D01*
X018200Y008543D02*
X017992Y008543D01*
X017991Y008542D02*
X018200Y008542D01*
X018200Y008541D02*
X017990Y008541D01*
X017990Y008540D02*
X018200Y008540D01*
X018200Y008539D02*
X017989Y008539D01*
X017988Y008538D02*
X018200Y008538D01*
X018200Y008537D02*
X017987Y008537D01*
X017987Y008536D02*
X018200Y008536D01*
X018200Y008535D02*
X017986Y008535D01*
X017985Y008534D02*
X018200Y008534D01*
X018200Y008533D02*
X017984Y008533D01*
X017984Y008532D02*
X018200Y008532D01*
X018200Y008531D02*
X017983Y008531D01*
X017982Y008530D02*
X018200Y008530D01*
X018200Y008529D02*
X017981Y008529D01*
X017981Y008528D02*
X018200Y008528D01*
X018200Y008527D02*
X017980Y008527D01*
X017979Y008526D02*
X018200Y008526D01*
X018200Y008525D02*
X017978Y008525D01*
X017978Y008524D02*
X018200Y008524D01*
X018200Y008523D02*
X017977Y008523D01*
X017976Y008522D02*
X018200Y008522D01*
X018200Y008521D02*
X017975Y008521D01*
X017975Y008520D02*
X018200Y008520D01*
X018200Y008519D02*
X017974Y008519D01*
X017973Y008518D02*
X018200Y008518D01*
X018200Y008517D02*
X017972Y008517D01*
X017972Y008516D02*
X018200Y008516D01*
X018200Y008515D02*
X017971Y008515D01*
X017970Y008514D02*
X018200Y008514D01*
X018200Y008513D02*
X017969Y008513D01*
X017969Y008512D02*
X018200Y008512D01*
X018200Y008511D02*
X017968Y008511D01*
X017967Y008510D02*
X018200Y008510D01*
X018200Y008509D02*
X017966Y008509D01*
X017966Y008508D02*
X018200Y008508D01*
X018200Y008507D02*
X017965Y008507D01*
X017964Y008506D02*
X018200Y008506D01*
X018200Y008505D02*
X017964Y008505D01*
X017963Y008504D02*
X018200Y008504D01*
X018200Y008503D02*
X017962Y008503D01*
X017961Y008502D02*
X018200Y008502D01*
X018200Y008501D02*
X017961Y008501D01*
X017960Y008500D02*
X018200Y008500D01*
X018200Y008499D02*
X017959Y008499D01*
X017958Y008498D02*
X018200Y008498D01*
X018200Y008497D02*
X017958Y008497D01*
X017957Y008496D02*
X018200Y008496D01*
X018200Y008495D02*
X017956Y008495D01*
X017955Y008494D02*
X018200Y008494D01*
X018200Y008493D02*
X017955Y008493D01*
X017954Y008492D02*
X018200Y008492D01*
X018200Y008491D02*
X017953Y008491D01*
X017952Y008490D02*
X018200Y008490D01*
X018200Y008489D02*
X017952Y008489D01*
X017951Y008488D02*
X018200Y008488D01*
X018200Y008487D02*
X017950Y008487D01*
X017950Y008486D02*
X018200Y008486D01*
X018200Y008485D02*
X017950Y008485D01*
X017950Y008484D02*
X018200Y008484D01*
X018200Y008483D02*
X017950Y008483D01*
X017950Y008482D02*
X018200Y008482D01*
X018200Y008481D02*
X017950Y008481D01*
X017950Y008480D02*
X018200Y008480D01*
X018200Y008479D02*
X017950Y008479D01*
X017950Y008478D02*
X018200Y008478D01*
X018200Y008477D02*
X017950Y008477D01*
X017950Y008476D02*
X018200Y008476D01*
X018200Y008475D02*
X017950Y008475D01*
X017950Y008474D02*
X018200Y008474D01*
X018200Y008473D02*
X017950Y008473D01*
X017950Y008472D02*
X018200Y008472D01*
X018200Y008471D02*
X017950Y008471D01*
X017950Y008470D02*
X018200Y008470D01*
X018200Y008469D02*
X017950Y008469D01*
X017950Y008468D02*
X018200Y008468D01*
X018200Y008467D02*
X017950Y008467D01*
X017950Y008466D02*
X018200Y008466D01*
X018200Y008465D02*
X017950Y008465D01*
X017950Y008464D02*
X018200Y008464D01*
X018200Y008463D02*
X017950Y008463D01*
X017950Y008462D02*
X018200Y008462D01*
X018200Y008461D02*
X017950Y008461D01*
X017950Y008460D02*
X018200Y008460D01*
X018200Y008459D02*
X017950Y008459D01*
X017950Y008458D02*
X018200Y008458D01*
X018200Y008457D02*
X017950Y008457D01*
X017950Y008456D02*
X018200Y008456D01*
X018200Y008455D02*
X017950Y008455D01*
X017950Y008454D02*
X018200Y008454D01*
X018200Y008453D02*
X017950Y008453D01*
X017950Y008452D02*
X018200Y008452D01*
X018200Y008451D02*
X017950Y008451D01*
X017950Y008450D02*
X018200Y008450D01*
X018200Y008449D02*
X017950Y008449D01*
X017950Y008448D02*
X018200Y008448D01*
X018200Y008447D02*
X017950Y008447D01*
X017950Y008446D02*
X018200Y008446D01*
X018200Y008445D02*
X017950Y008445D01*
X017950Y008444D02*
X018200Y008444D01*
X018200Y008443D02*
X017950Y008443D01*
X017950Y008442D02*
X018200Y008442D01*
X018200Y008441D02*
X017950Y008441D01*
X017950Y008440D02*
X018200Y008440D01*
X018200Y008439D02*
X017950Y008439D01*
X017950Y008438D02*
X018200Y008438D01*
X018200Y008437D02*
X017950Y008437D01*
X017950Y008436D02*
X018200Y008436D01*
X018200Y008435D02*
X017950Y008435D01*
X017950Y008434D02*
X018200Y008434D01*
X018200Y008433D02*
X017950Y008433D01*
X017950Y008432D02*
X018200Y008432D01*
X018200Y008431D02*
X017950Y008431D01*
X017950Y008430D02*
X018200Y008430D01*
X018200Y008429D02*
X017950Y008429D01*
X017950Y008428D02*
X018200Y008428D01*
X018200Y008427D02*
X017950Y008427D01*
X017950Y008426D02*
X018200Y008426D01*
X018200Y008425D02*
X017950Y008425D01*
X017950Y008424D02*
X018200Y008424D01*
X018200Y008423D02*
X017950Y008423D01*
X017950Y008422D02*
X018200Y008422D01*
X018200Y008421D02*
X017950Y008421D01*
X017950Y008420D02*
X018200Y008420D01*
X018200Y008419D02*
X017950Y008419D01*
X017950Y008418D02*
X018200Y008418D01*
X018200Y008417D02*
X017950Y008417D01*
X017950Y008416D02*
X018200Y008416D01*
X018200Y008415D02*
X017950Y008415D01*
X017950Y008414D02*
X018200Y008414D01*
X018200Y008413D02*
X017950Y008413D01*
X017950Y008412D02*
X018200Y008412D01*
X018200Y008411D02*
X017950Y008411D01*
X017950Y008410D02*
X018200Y008410D01*
X018200Y008409D02*
X017950Y008409D01*
X017950Y008408D02*
X018200Y008408D01*
X018200Y008407D02*
X017950Y008407D01*
X017950Y008406D02*
X018200Y008406D01*
X018200Y008405D02*
X017950Y008405D01*
X017950Y008404D02*
X018200Y008404D01*
X018200Y008403D02*
X017950Y008403D01*
X017950Y008402D02*
X018200Y008402D01*
X018200Y008401D02*
X017950Y008401D01*
X017950Y008400D02*
X018200Y008400D01*
X018200Y008399D02*
X017950Y008399D01*
X017950Y008398D02*
X018200Y008398D01*
X018200Y008397D02*
X017950Y008397D01*
X017950Y008396D02*
X018200Y008396D01*
X018200Y008395D02*
X017950Y008395D01*
X017950Y008394D02*
X018200Y008394D01*
X018200Y008393D02*
X017950Y008393D01*
X017950Y008392D02*
X018200Y008392D01*
X018200Y008391D02*
X017950Y008391D01*
X017950Y008390D02*
X018200Y008390D01*
X018200Y008389D02*
X017950Y008389D01*
X017950Y008388D02*
X018200Y008388D01*
X018200Y008387D02*
X017950Y008387D01*
X017950Y008386D02*
X018200Y008386D01*
X018200Y008385D02*
X017950Y008385D01*
X017950Y008384D02*
X018200Y008384D01*
X018200Y008383D02*
X017950Y008383D01*
X017950Y008382D02*
X018200Y008382D01*
X018200Y008381D02*
X017950Y008381D01*
X017950Y008380D02*
X018200Y008380D01*
X018200Y008379D02*
X017950Y008379D01*
X017950Y008378D02*
X018200Y008378D01*
X018200Y008377D02*
X017950Y008377D01*
X017950Y008376D02*
X018200Y008376D01*
X018200Y008375D02*
X017950Y008375D01*
X017950Y008374D02*
X018200Y008374D01*
X018200Y008373D02*
X017950Y008373D01*
X017950Y008372D02*
X018200Y008372D01*
X018200Y008371D02*
X017950Y008371D01*
X017950Y008370D02*
X018200Y008370D01*
X018200Y008369D02*
X017950Y008369D01*
X017950Y008368D02*
X018200Y008368D01*
X018200Y008367D02*
X017950Y008367D01*
X017950Y008366D02*
X018200Y008366D01*
X018200Y008365D02*
X017950Y008365D01*
X017950Y008364D02*
X018200Y008364D01*
X018200Y008363D02*
X017950Y008363D01*
X017950Y008362D02*
X018200Y008362D01*
X018200Y008361D02*
X017950Y008361D01*
X017950Y008360D02*
X018200Y008360D01*
X018200Y008359D02*
X017950Y008359D01*
X017950Y008358D02*
X018200Y008358D01*
X018200Y008357D02*
X017950Y008357D01*
X017950Y008356D02*
X018200Y008356D01*
X018200Y008355D02*
X017950Y008355D01*
X017950Y008354D02*
X018200Y008354D01*
X018200Y008353D02*
X017950Y008353D01*
X017950Y008352D02*
X018200Y008352D01*
X018200Y008351D02*
X017950Y008351D01*
X017950Y008350D02*
X018200Y008350D01*
X018200Y008349D02*
X017950Y008349D01*
X017950Y008348D02*
X018200Y008348D01*
X018200Y008347D02*
X017950Y008347D01*
X017950Y008346D02*
X018200Y008346D01*
X018200Y008345D02*
X017950Y008345D01*
X017950Y008344D02*
X018200Y008344D01*
X018200Y008343D02*
X017950Y008343D01*
X017950Y008342D02*
X018200Y008342D01*
X018200Y008341D02*
X017950Y008341D01*
X017950Y008340D02*
X018200Y008340D01*
X018200Y008339D02*
X017950Y008339D01*
X017950Y008338D02*
X018200Y008338D01*
X018200Y008337D02*
X017950Y008337D01*
X017950Y008336D02*
X018200Y008336D01*
X018200Y008335D02*
X017950Y008335D01*
X017950Y008334D02*
X018200Y008334D01*
X018200Y008333D02*
X017950Y008333D01*
X017950Y008332D02*
X018200Y008332D01*
X018200Y008331D02*
X017950Y008331D01*
X017950Y008330D02*
X018200Y008330D01*
X018200Y008329D02*
X017950Y008329D01*
X017950Y008328D02*
X018200Y008328D01*
X018200Y008327D02*
X017950Y008327D01*
X017950Y008326D02*
X018200Y008326D01*
X018200Y008325D02*
X017950Y008325D01*
X017950Y008324D02*
X018200Y008324D01*
X018200Y008323D02*
X017950Y008323D01*
X017950Y008322D02*
X018200Y008322D01*
X018200Y008321D02*
X017950Y008321D01*
X017950Y008320D02*
X018200Y008320D01*
X018200Y008319D02*
X017950Y008319D01*
X017950Y008318D02*
X018200Y008318D01*
X018200Y008317D02*
X017950Y008317D01*
X017950Y008316D02*
X018200Y008316D01*
X018200Y008315D02*
X017950Y008315D01*
X017950Y008314D02*
X018200Y008314D01*
X018200Y008313D02*
X017950Y008313D01*
X017950Y008312D02*
X018200Y008312D01*
X018200Y008311D02*
X017950Y008311D01*
X017950Y008310D02*
X018200Y008310D01*
X018200Y008309D02*
X017950Y008309D01*
X017950Y008308D02*
X018200Y008308D01*
X018200Y008307D02*
X017950Y008307D01*
X017950Y008306D02*
X018200Y008306D01*
X018200Y008305D02*
X017950Y008305D01*
X017950Y008304D02*
X018200Y008304D01*
X018200Y008303D02*
X017950Y008303D01*
X017950Y008302D02*
X018200Y008302D01*
X018200Y008301D02*
X017950Y008301D01*
X017950Y008300D02*
X018200Y008300D01*
X018200Y008299D02*
X017950Y008299D01*
X017950Y008298D02*
X018200Y008298D01*
X018200Y008297D02*
X017950Y008297D01*
X017950Y008296D02*
X018200Y008296D01*
X018200Y008295D02*
X017950Y008295D01*
X017950Y008294D02*
X018200Y008294D01*
X018200Y008293D02*
X017950Y008293D01*
X017950Y008292D02*
X018200Y008292D01*
X018200Y008291D02*
X017950Y008291D01*
X017950Y008290D02*
X018200Y008290D01*
X018200Y008289D02*
X017950Y008289D01*
X017950Y008288D02*
X018200Y008288D01*
X018200Y008287D02*
X017950Y008287D01*
X017950Y008286D02*
X018200Y008286D01*
X018200Y008285D02*
X017950Y008285D01*
X017950Y008284D02*
X018200Y008284D01*
X018200Y008283D02*
X017950Y008283D01*
X017950Y008282D02*
X018200Y008282D01*
X018200Y008281D02*
X017950Y008281D01*
X017950Y008280D02*
X018200Y008280D01*
X018200Y008279D02*
X017950Y008279D01*
X017950Y008278D02*
X018200Y008278D01*
X018200Y008277D02*
X017950Y008277D01*
X017950Y008276D02*
X018200Y008276D01*
X018200Y008275D02*
X017950Y008275D01*
X017950Y008274D02*
X018200Y008274D01*
X018200Y008273D02*
X017950Y008273D01*
X017950Y008272D02*
X018200Y008272D01*
X018200Y008271D02*
X017950Y008271D01*
X017950Y008270D02*
X018200Y008270D01*
X018200Y008269D02*
X017950Y008269D01*
X017950Y008268D02*
X018200Y008268D01*
X018200Y008267D02*
X017950Y008267D01*
X017950Y008266D02*
X018200Y008266D01*
X018200Y008265D02*
X017950Y008265D01*
X017950Y008264D02*
X018200Y008264D01*
X018200Y008263D02*
X017950Y008263D01*
X017950Y008262D02*
X018200Y008262D01*
X018200Y008261D02*
X017950Y008261D01*
X017950Y008260D02*
X018200Y008260D01*
X018200Y008259D02*
X017950Y008259D01*
X017950Y008258D02*
X018200Y008258D01*
X018200Y008257D02*
X017950Y008257D01*
X017950Y008256D02*
X018200Y008256D01*
X018200Y008255D02*
X017950Y008255D01*
X017950Y008254D02*
X018200Y008254D01*
X018200Y008253D02*
X017950Y008253D01*
X017950Y008252D02*
X018200Y008252D01*
X018200Y008251D02*
X017950Y008251D01*
X017950Y008250D02*
X018200Y008250D01*
X018200Y008249D02*
X017950Y008249D01*
X017950Y008248D02*
X018200Y008248D01*
X018200Y008247D02*
X017950Y008247D01*
X017950Y008246D02*
X018200Y008246D01*
X018200Y008245D02*
X017950Y008245D01*
X017950Y008244D02*
X018200Y008244D01*
X018200Y008243D02*
X017950Y008243D01*
X017950Y008242D02*
X018200Y008242D01*
X018200Y008241D02*
X017950Y008241D01*
X017950Y008240D02*
X018200Y008240D01*
X018200Y008239D02*
X017950Y008239D01*
X017950Y008238D02*
X018200Y008238D01*
X018200Y008237D02*
X017950Y008237D01*
X017950Y008236D02*
X018200Y008236D01*
X018200Y008235D02*
X017950Y008235D01*
X017950Y008234D02*
X018200Y008234D01*
X018200Y008233D02*
X017950Y008233D01*
X017950Y008232D02*
X018200Y008232D01*
X018200Y008231D02*
X017950Y008231D01*
X017950Y008230D02*
X018200Y008230D01*
X018200Y008229D02*
X017950Y008229D01*
X017950Y008228D02*
X018200Y008228D01*
X018200Y008227D02*
X017950Y008227D01*
X017950Y008226D02*
X018200Y008226D01*
X018200Y008225D02*
X017950Y008225D01*
X017950Y008224D02*
X018200Y008224D01*
X018200Y008223D02*
X017950Y008223D01*
X017950Y008222D02*
X018200Y008222D01*
X018200Y008221D02*
X017950Y008221D01*
X017950Y008220D02*
X018200Y008220D01*
X018200Y008219D02*
X017950Y008219D01*
X017950Y008218D02*
X018200Y008218D01*
X018200Y008217D02*
X017950Y008217D01*
X017950Y008216D02*
X018200Y008216D01*
X018200Y008215D02*
X017950Y008215D01*
X017950Y008214D02*
X018200Y008214D01*
X018200Y008213D02*
X017950Y008213D01*
X017950Y008212D02*
X018200Y008212D01*
X018200Y008211D02*
X017950Y008211D01*
X017950Y008210D02*
X018200Y008210D01*
X018200Y008209D02*
X017950Y008209D01*
X017950Y008208D02*
X018200Y008208D01*
X018200Y008207D02*
X017950Y008207D01*
X017950Y008206D02*
X018200Y008206D01*
X018200Y008205D02*
X017950Y008205D01*
X017950Y008204D02*
X018200Y008204D01*
X018200Y008203D02*
X017950Y008203D01*
X017950Y008202D02*
X018200Y008202D01*
X018200Y008201D02*
X017950Y008201D01*
X017950Y008200D02*
X018200Y008200D01*
X018200Y008199D02*
X017950Y008199D01*
X017950Y008198D02*
X018200Y008198D01*
X018200Y008197D02*
X017950Y008197D01*
X017950Y008196D02*
X018200Y008196D01*
X018200Y008195D02*
X017950Y008195D01*
X017950Y008194D02*
X018200Y008194D01*
X018200Y008193D02*
X017950Y008193D01*
X017950Y008192D02*
X018200Y008192D01*
X018200Y008191D02*
X017950Y008191D01*
X017950Y008190D02*
X018200Y008190D01*
X018200Y008189D02*
X017950Y008189D01*
X017950Y008188D02*
X018200Y008188D01*
X018200Y008187D02*
X017950Y008187D01*
X017950Y008186D02*
X018200Y008186D01*
X018200Y008185D02*
X017950Y008185D01*
X017950Y008184D02*
X018200Y008184D01*
X018200Y008183D02*
X017950Y008183D01*
X017950Y008182D02*
X018200Y008182D01*
X018200Y008181D02*
X017950Y008181D01*
X017950Y008180D02*
X018200Y008180D01*
X018200Y008179D02*
X017950Y008179D01*
X017950Y008178D02*
X018200Y008178D01*
X018200Y008177D02*
X017950Y008177D01*
X017950Y008176D02*
X018200Y008176D01*
X018200Y008175D02*
X017950Y008175D01*
X017950Y008174D02*
X018200Y008174D01*
X018200Y008173D02*
X017950Y008173D01*
X017950Y008172D02*
X018200Y008172D01*
X018200Y008171D02*
X017950Y008171D01*
X017950Y008170D02*
X018200Y008170D01*
X018200Y008169D02*
X017950Y008169D01*
X017950Y008168D02*
X018200Y008168D01*
X018200Y008167D02*
X017950Y008167D01*
X017950Y008166D02*
X018200Y008166D01*
X018200Y008165D02*
X017950Y008165D01*
X017950Y008164D02*
X018200Y008164D01*
X018200Y008163D02*
X017950Y008163D01*
X017950Y008162D02*
X018200Y008162D01*
X018200Y008161D02*
X017950Y008161D01*
X017950Y008160D02*
X018200Y008160D01*
X018200Y008159D02*
X017950Y008159D01*
X017950Y008158D02*
X018200Y008158D01*
X018200Y008157D02*
X017950Y008157D01*
X017950Y008156D02*
X018200Y008156D01*
X018200Y008155D02*
X017950Y008155D01*
X017950Y008154D02*
X018200Y008154D01*
X018200Y008153D02*
X017950Y008153D01*
X017950Y008152D02*
X018200Y008152D01*
X018200Y008151D02*
X017950Y008151D01*
X017950Y008150D02*
X018200Y008150D01*
X018200Y008149D02*
X017950Y008149D01*
X017950Y008148D02*
X018200Y008148D01*
X018200Y008147D02*
X017950Y008147D01*
X017950Y008146D02*
X018200Y008146D01*
X018200Y008145D02*
X017950Y008145D01*
X017950Y008144D02*
X018200Y008144D01*
X018200Y008143D02*
X017950Y008143D01*
X017950Y008142D02*
X018200Y008142D01*
X018200Y008141D02*
X017950Y008141D01*
X017950Y008140D02*
X018200Y008140D01*
X018200Y008139D02*
X017950Y008139D01*
X017950Y008138D02*
X018200Y008138D01*
X018200Y008137D02*
X017950Y008137D01*
X017950Y008136D02*
X018200Y008136D01*
X018200Y008135D02*
X017950Y008135D01*
X017950Y008134D02*
X018200Y008134D01*
X018200Y008133D02*
X017950Y008133D01*
X017950Y008132D02*
X018200Y008132D01*
X018200Y008131D02*
X017950Y008131D01*
X017950Y008130D02*
X018200Y008130D01*
X018200Y008129D02*
X017950Y008129D01*
X017950Y008128D02*
X018200Y008128D01*
X018200Y008127D02*
X017950Y008127D01*
X017950Y008126D02*
X018200Y008126D01*
X018200Y008125D02*
X017950Y008125D01*
X017950Y008124D02*
X018200Y008124D01*
X018200Y008123D02*
X017950Y008123D01*
X017950Y008122D02*
X018200Y008122D01*
X018200Y008121D02*
X017950Y008121D01*
X017950Y008120D02*
X018200Y008120D01*
X018200Y008119D02*
X017950Y008119D01*
X017950Y008118D02*
X018200Y008118D01*
X018200Y008117D02*
X017950Y008117D01*
X017950Y008116D02*
X018200Y008116D01*
X018200Y008115D02*
X017950Y008115D01*
X017950Y008114D02*
X018200Y008114D01*
X018200Y008113D02*
X017950Y008113D01*
X017950Y008112D02*
X018200Y008112D01*
X018200Y008111D02*
X017950Y008111D01*
X017950Y008110D02*
X018200Y008110D01*
X018200Y008109D02*
X017950Y008109D01*
X017950Y008108D02*
X018200Y008108D01*
X018200Y008107D02*
X017950Y008107D01*
X017950Y008106D02*
X018200Y008106D01*
X018200Y008105D02*
X017950Y008105D01*
X017950Y008104D02*
X018200Y008104D01*
X018200Y008103D02*
X017950Y008103D01*
X017950Y008102D02*
X018200Y008102D01*
X018200Y008101D02*
X017950Y008101D01*
X017950Y008100D02*
X018200Y008100D01*
X018200Y008099D02*
X017950Y008099D01*
X017950Y008098D02*
X018200Y008098D01*
X018200Y008097D02*
X017950Y008097D01*
X017950Y008096D02*
X018200Y008096D01*
X018200Y008095D02*
X017950Y008095D01*
X017950Y008094D02*
X018200Y008094D01*
X018200Y008093D02*
X017950Y008093D01*
X017950Y008092D02*
X018200Y008092D01*
X018200Y008091D02*
X017950Y008091D01*
X017950Y008090D02*
X018200Y008090D01*
X018200Y008089D02*
X017950Y008089D01*
X017950Y008088D02*
X018200Y008088D01*
X018200Y008087D02*
X017950Y008087D01*
X017950Y008086D02*
X018200Y008086D01*
X018200Y008085D02*
X017950Y008085D01*
X017950Y008084D02*
X018200Y008084D01*
X018200Y008083D02*
X017950Y008083D01*
X017950Y008082D02*
X018200Y008082D01*
X018200Y008081D02*
X017950Y008081D01*
X017950Y008080D02*
X018200Y008080D01*
X018200Y008079D02*
X017950Y008079D01*
X017950Y008078D02*
X018200Y008078D01*
X018200Y008077D02*
X017950Y008077D01*
X017950Y008076D02*
X018200Y008076D01*
X018200Y008075D02*
X017950Y008075D01*
X017950Y008074D02*
X018200Y008074D01*
X018200Y008073D02*
X017950Y008073D01*
X017950Y008072D02*
X018200Y008072D01*
X018200Y008071D02*
X017950Y008071D01*
X017950Y008070D02*
X018200Y008070D01*
X018200Y008069D02*
X017950Y008069D01*
X017950Y008068D02*
X018200Y008068D01*
X018200Y008067D02*
X017950Y008067D01*
X017950Y008066D02*
X018200Y008066D01*
X018200Y008065D02*
X017950Y008065D01*
X017950Y008064D02*
X018200Y008064D01*
X018200Y008063D02*
X017950Y008063D01*
X017950Y008062D02*
X018200Y008062D01*
X018200Y008061D02*
X017950Y008061D01*
X017950Y008060D02*
X018200Y008060D01*
X018200Y008059D02*
X017950Y008059D01*
X017950Y008058D02*
X018200Y008058D01*
X018200Y008057D02*
X017950Y008057D01*
X017950Y008056D02*
X018200Y008056D01*
X018200Y008055D02*
X017950Y008055D01*
X017950Y008054D02*
X018200Y008054D01*
X018200Y008053D02*
X017950Y008053D01*
X017950Y008052D02*
X018200Y008052D01*
X018200Y008051D02*
X017950Y008051D01*
X017950Y008050D02*
X018200Y008050D01*
X018200Y008049D02*
X017950Y008049D01*
X017950Y008048D02*
X018200Y008048D01*
X018200Y008047D02*
X017950Y008047D01*
X017950Y008046D02*
X018200Y008046D01*
X018200Y008045D02*
X017950Y008045D01*
X017950Y008044D02*
X018200Y008044D01*
X018200Y008043D02*
X017950Y008043D01*
X017950Y008042D02*
X018200Y008042D01*
X018200Y008041D02*
X017950Y008041D01*
X017950Y008040D02*
X018200Y008040D01*
X018200Y008039D02*
X017950Y008039D01*
X017950Y008038D02*
X018200Y008038D01*
X018200Y008037D02*
X017950Y008037D01*
X017950Y008036D02*
X018200Y008036D01*
X018200Y008035D02*
X017950Y008035D01*
X017950Y008034D02*
X018200Y008034D01*
X018200Y008033D02*
X017950Y008033D01*
X017950Y008032D02*
X018200Y008032D01*
X018200Y008031D02*
X017950Y008031D01*
X017950Y008030D02*
X018200Y008030D01*
X018200Y008029D02*
X017950Y008029D01*
X017950Y008028D02*
X018200Y008028D01*
X018200Y008027D02*
X017950Y008027D01*
X017950Y008026D02*
X018200Y008026D01*
X018200Y008025D02*
X017950Y008025D01*
X017950Y008024D02*
X018200Y008024D01*
X018200Y008023D02*
X017950Y008023D01*
X017950Y008022D02*
X018200Y008022D01*
X018200Y008021D02*
X017950Y008021D01*
X017950Y008020D02*
X018200Y008020D01*
X018200Y008019D02*
X017950Y008019D01*
X017950Y008018D02*
X018200Y008018D01*
X018200Y008017D02*
X017950Y008017D01*
X017950Y008016D02*
X018200Y008016D01*
X018200Y008015D02*
X017950Y008015D01*
X017950Y008014D02*
X018200Y008014D01*
X018200Y008013D02*
X017950Y008013D01*
X017950Y008012D02*
X018200Y008012D01*
X018200Y008011D02*
X017950Y008011D01*
X017950Y008010D02*
X018200Y008010D01*
X018200Y008009D02*
X017950Y008009D01*
X017950Y008008D02*
X018200Y008008D01*
X018200Y008007D02*
X017950Y008007D01*
X017950Y008006D02*
X018200Y008006D01*
X018200Y008005D02*
X017950Y008005D01*
X017950Y008004D02*
X018200Y008004D01*
X018200Y008003D02*
X017950Y008003D01*
X017950Y008002D02*
X018200Y008002D01*
X018200Y008001D02*
X017950Y008001D01*
X017950Y008000D02*
X018200Y008000D01*
X018200Y007999D02*
X017950Y007999D01*
X017950Y007998D02*
X018200Y007998D01*
X018200Y007997D02*
X017950Y007997D01*
X017950Y007996D02*
X018200Y007996D01*
X018200Y007995D02*
X017950Y007995D01*
X017950Y007994D02*
X018200Y007994D01*
X018200Y007993D02*
X017950Y007993D01*
X017950Y007992D02*
X018200Y007992D01*
X018200Y007991D02*
X017950Y007991D01*
X017950Y007990D02*
X018200Y007990D01*
X018200Y007989D02*
X017950Y007989D01*
X017950Y007988D02*
X018200Y007988D01*
X018200Y007987D02*
X017950Y007987D01*
X018513Y008537D02*
X018800Y008537D01*
D33*
X015454Y009950D02*
X015291Y009787D01*
X014500Y009787D01*
X015315Y010090D02*
X014120Y011285D01*
X012350Y009437D02*
X012350Y009387D01*
D34*
X012350Y009437D02*
X012850Y009937D01*
X014350Y009937D01*
X014500Y009787D01*
X014120Y011285D02*
X014120Y013887D01*
X019563Y010600D02*
X019777Y010387D01*
X020600Y010387D01*
X014400Y006887D02*
X012583Y006887D01*
X011900Y006204D01*
X011400Y006204D01*
X011400Y005770D02*
X011400Y004337D01*
X012400Y004337D02*
X012400Y005720D01*
X012400Y006154D02*
X012900Y006154D01*
X013233Y006487D01*
X014250Y006487D01*
X014383Y006104D02*
X013900Y006104D01*
X013400Y006104D01*
X013400Y005670D02*
X013400Y004337D01*
X014400Y006087D02*
X014383Y006104D01*
D35*
X013300Y018421D02*
X013300Y020237D01*
D36*
X014400Y007637D03*
X014150Y007237D03*
X014400Y006887D03*
X014250Y006487D03*
X014400Y006087D03*
X016000Y006087D03*
X016150Y006487D03*
X016000Y006887D03*
X016200Y007287D03*
X016000Y007637D03*
D37*
X010775Y006412D02*
X010200Y005837D01*
X010200Y004537D01*
X009900Y004237D01*
X009900Y003687D01*
X010050Y003537D01*
X010358Y003537D01*
M02*
