G75*
%MOIN*%
%OFA0B0*%
%FSLAX24Y24*%
%IPPOS*%
%LPD*%
%AMOC8*
5,1,8,0,0,1.08239X$1,22.5*
%
%ADD10C,0.0000*%
D10*
X001108Y002167D02*
X001108Y027387D01*
X001110Y027463D01*
X001116Y027539D01*
X001125Y027614D01*
X001139Y027689D01*
X001156Y027763D01*
X001177Y027836D01*
X001201Y027908D01*
X001230Y027979D01*
X001261Y028048D01*
X001296Y028115D01*
X001335Y028180D01*
X001377Y028244D01*
X001422Y028305D01*
X001470Y028364D01*
X001521Y028420D01*
X001575Y028474D01*
X001631Y028525D01*
X001690Y028573D01*
X001751Y028618D01*
X001815Y028660D01*
X001880Y028699D01*
X001947Y028734D01*
X002016Y028765D01*
X002087Y028794D01*
X002159Y028818D01*
X002232Y028839D01*
X002306Y028856D01*
X002381Y028870D01*
X002456Y028879D01*
X002532Y028885D01*
X002608Y028887D01*
X020600Y028887D01*
X020676Y028885D01*
X020752Y028879D01*
X020827Y028870D01*
X020902Y028856D01*
X020976Y028839D01*
X021049Y028818D01*
X021121Y028794D01*
X021192Y028765D01*
X021261Y028734D01*
X021328Y028699D01*
X021393Y028660D01*
X021457Y028618D01*
X021518Y028573D01*
X021577Y028525D01*
X021633Y028474D01*
X021687Y028420D01*
X021738Y028364D01*
X021786Y028305D01*
X021831Y028244D01*
X021873Y028180D01*
X021912Y028115D01*
X021947Y028048D01*
X021978Y027979D01*
X022007Y027908D01*
X022031Y027836D01*
X022052Y027763D01*
X022069Y027689D01*
X022083Y027614D01*
X022092Y027539D01*
X022098Y027463D01*
X022100Y027387D01*
X022100Y002167D01*
X022098Y002091D01*
X022092Y002015D01*
X022083Y001940D01*
X022069Y001865D01*
X022052Y001791D01*
X022031Y001718D01*
X022007Y001646D01*
X021978Y001575D01*
X021947Y001506D01*
X021912Y001439D01*
X021873Y001374D01*
X021831Y001310D01*
X021786Y001249D01*
X021738Y001190D01*
X021687Y001134D01*
X021633Y001080D01*
X021577Y001029D01*
X021518Y000981D01*
X021457Y000936D01*
X021393Y000894D01*
X021328Y000855D01*
X021261Y000820D01*
X021192Y000789D01*
X021121Y000760D01*
X021049Y000736D01*
X020976Y000715D01*
X020902Y000698D01*
X020827Y000684D01*
X020752Y000675D01*
X020676Y000669D01*
X020600Y000667D01*
X002608Y000667D01*
X002532Y000669D01*
X002456Y000675D01*
X002381Y000684D01*
X002306Y000698D01*
X002232Y000715D01*
X002159Y000736D01*
X002087Y000760D01*
X002016Y000789D01*
X001947Y000820D01*
X001880Y000855D01*
X001815Y000894D01*
X001751Y000936D01*
X001690Y000981D01*
X001631Y001029D01*
X001575Y001080D01*
X001521Y001134D01*
X001470Y001190D01*
X001422Y001249D01*
X001377Y001310D01*
X001335Y001374D01*
X001296Y001439D01*
X001261Y001506D01*
X001230Y001575D01*
X001201Y001646D01*
X001177Y001718D01*
X001156Y001791D01*
X001139Y001865D01*
X001125Y001940D01*
X001116Y002015D01*
X001110Y002091D01*
X001108Y002167D01*
X001975Y002287D02*
X001977Y002341D01*
X001983Y002394D01*
X001993Y002446D01*
X002006Y002498D01*
X002024Y002549D01*
X002045Y002598D01*
X002070Y002646D01*
X002098Y002691D01*
X002130Y002735D01*
X002164Y002775D01*
X002202Y002814D01*
X002242Y002849D01*
X002285Y002881D01*
X002330Y002910D01*
X002377Y002936D01*
X002426Y002958D01*
X002476Y002977D01*
X002527Y002991D01*
X002580Y003002D01*
X002633Y003009D01*
X002687Y003012D01*
X002740Y003011D01*
X002794Y003006D01*
X002846Y002997D01*
X002898Y002984D01*
X002949Y002968D01*
X002999Y002947D01*
X003047Y002924D01*
X003093Y002896D01*
X003137Y002866D01*
X003178Y002832D01*
X003217Y002795D01*
X003253Y002755D01*
X003287Y002713D01*
X003316Y002669D01*
X003343Y002622D01*
X003366Y002574D01*
X003385Y002524D01*
X003401Y002472D01*
X003413Y002420D01*
X003421Y002367D01*
X003425Y002314D01*
X003425Y002260D01*
X003421Y002207D01*
X003413Y002154D01*
X003401Y002102D01*
X003385Y002050D01*
X003366Y002000D01*
X003343Y001952D01*
X003316Y001905D01*
X003287Y001861D01*
X003253Y001819D01*
X003217Y001779D01*
X003178Y001742D01*
X003137Y001708D01*
X003093Y001678D01*
X003047Y001650D01*
X002999Y001627D01*
X002949Y001606D01*
X002898Y001590D01*
X002846Y001577D01*
X002794Y001568D01*
X002740Y001563D01*
X002687Y001562D01*
X002633Y001565D01*
X002580Y001572D01*
X002527Y001583D01*
X002476Y001597D01*
X002426Y001616D01*
X002377Y001638D01*
X002330Y001664D01*
X002285Y001693D01*
X002242Y001725D01*
X002202Y001760D01*
X002164Y001799D01*
X002130Y001839D01*
X002098Y001883D01*
X002070Y001928D01*
X002045Y001976D01*
X002024Y002025D01*
X002006Y002076D01*
X001993Y002128D01*
X001983Y002180D01*
X001977Y002233D01*
X001975Y002287D01*
X019875Y002287D02*
X019877Y002337D01*
X019883Y002386D01*
X019893Y002435D01*
X019906Y002482D01*
X019924Y002529D01*
X019945Y002574D01*
X019969Y002617D01*
X019997Y002658D01*
X020028Y002697D01*
X020062Y002733D01*
X020099Y002767D01*
X020139Y002797D01*
X020180Y002824D01*
X020224Y002848D01*
X020269Y002868D01*
X020316Y002884D01*
X020364Y002897D01*
X020413Y002906D01*
X020463Y002911D01*
X020512Y002912D01*
X020562Y002909D01*
X020611Y002902D01*
X020660Y002891D01*
X020707Y002877D01*
X020753Y002858D01*
X020798Y002836D01*
X020841Y002811D01*
X020881Y002782D01*
X020919Y002750D01*
X020955Y002716D01*
X020988Y002678D01*
X021017Y002638D01*
X021043Y002596D01*
X021066Y002552D01*
X021085Y002506D01*
X021101Y002459D01*
X021113Y002410D01*
X021121Y002361D01*
X021125Y002312D01*
X021125Y002262D01*
X021121Y002213D01*
X021113Y002164D01*
X021101Y002115D01*
X021085Y002068D01*
X021066Y002022D01*
X021043Y001978D01*
X021017Y001936D01*
X020988Y001896D01*
X020955Y001858D01*
X020919Y001824D01*
X020881Y001792D01*
X020841Y001763D01*
X020798Y001738D01*
X020753Y001716D01*
X020707Y001697D01*
X020660Y001683D01*
X020611Y001672D01*
X020562Y001665D01*
X020512Y001662D01*
X020463Y001663D01*
X020413Y001668D01*
X020364Y001677D01*
X020316Y001690D01*
X020269Y001706D01*
X020224Y001726D01*
X020180Y001750D01*
X020139Y001777D01*
X020099Y001807D01*
X020062Y001841D01*
X020028Y001877D01*
X019997Y001916D01*
X019969Y001957D01*
X019945Y002000D01*
X019924Y002045D01*
X019906Y002092D01*
X019893Y002139D01*
X019883Y002188D01*
X019877Y002237D01*
X019875Y002287D01*
X019875Y027287D02*
X019877Y027337D01*
X019883Y027386D01*
X019893Y027435D01*
X019906Y027482D01*
X019924Y027529D01*
X019945Y027574D01*
X019969Y027617D01*
X019997Y027658D01*
X020028Y027697D01*
X020062Y027733D01*
X020099Y027767D01*
X020139Y027797D01*
X020180Y027824D01*
X020224Y027848D01*
X020269Y027868D01*
X020316Y027884D01*
X020364Y027897D01*
X020413Y027906D01*
X020463Y027911D01*
X020512Y027912D01*
X020562Y027909D01*
X020611Y027902D01*
X020660Y027891D01*
X020707Y027877D01*
X020753Y027858D01*
X020798Y027836D01*
X020841Y027811D01*
X020881Y027782D01*
X020919Y027750D01*
X020955Y027716D01*
X020988Y027678D01*
X021017Y027638D01*
X021043Y027596D01*
X021066Y027552D01*
X021085Y027506D01*
X021101Y027459D01*
X021113Y027410D01*
X021121Y027361D01*
X021125Y027312D01*
X021125Y027262D01*
X021121Y027213D01*
X021113Y027164D01*
X021101Y027115D01*
X021085Y027068D01*
X021066Y027022D01*
X021043Y026978D01*
X021017Y026936D01*
X020988Y026896D01*
X020955Y026858D01*
X020919Y026824D01*
X020881Y026792D01*
X020841Y026763D01*
X020798Y026738D01*
X020753Y026716D01*
X020707Y026697D01*
X020660Y026683D01*
X020611Y026672D01*
X020562Y026665D01*
X020512Y026662D01*
X020463Y026663D01*
X020413Y026668D01*
X020364Y026677D01*
X020316Y026690D01*
X020269Y026706D01*
X020224Y026726D01*
X020180Y026750D01*
X020139Y026777D01*
X020099Y026807D01*
X020062Y026841D01*
X020028Y026877D01*
X019997Y026916D01*
X019969Y026957D01*
X019945Y027000D01*
X019924Y027045D01*
X019906Y027092D01*
X019893Y027139D01*
X019883Y027188D01*
X019877Y027237D01*
X019875Y027287D01*
X001975Y027287D02*
X001977Y027341D01*
X001983Y027394D01*
X001993Y027446D01*
X002006Y027498D01*
X002024Y027549D01*
X002045Y027598D01*
X002070Y027646D01*
X002098Y027691D01*
X002130Y027735D01*
X002164Y027775D01*
X002202Y027814D01*
X002242Y027849D01*
X002285Y027881D01*
X002330Y027910D01*
X002377Y027936D01*
X002426Y027958D01*
X002476Y027977D01*
X002527Y027991D01*
X002580Y028002D01*
X002633Y028009D01*
X002687Y028012D01*
X002740Y028011D01*
X002794Y028006D01*
X002846Y027997D01*
X002898Y027984D01*
X002949Y027968D01*
X002999Y027947D01*
X003047Y027924D01*
X003093Y027896D01*
X003137Y027866D01*
X003178Y027832D01*
X003217Y027795D01*
X003253Y027755D01*
X003287Y027713D01*
X003316Y027669D01*
X003343Y027622D01*
X003366Y027574D01*
X003385Y027524D01*
X003401Y027472D01*
X003413Y027420D01*
X003421Y027367D01*
X003425Y027314D01*
X003425Y027260D01*
X003421Y027207D01*
X003413Y027154D01*
X003401Y027102D01*
X003385Y027050D01*
X003366Y027000D01*
X003343Y026952D01*
X003316Y026905D01*
X003287Y026861D01*
X003253Y026819D01*
X003217Y026779D01*
X003178Y026742D01*
X003137Y026708D01*
X003093Y026678D01*
X003047Y026650D01*
X002999Y026627D01*
X002949Y026606D01*
X002898Y026590D01*
X002846Y026577D01*
X002794Y026568D01*
X002740Y026563D01*
X002687Y026562D01*
X002633Y026565D01*
X002580Y026572D01*
X002527Y026583D01*
X002476Y026597D01*
X002426Y026616D01*
X002377Y026638D01*
X002330Y026664D01*
X002285Y026693D01*
X002242Y026725D01*
X002202Y026760D01*
X002164Y026799D01*
X002130Y026839D01*
X002098Y026883D01*
X002070Y026928D01*
X002045Y026976D01*
X002024Y027025D01*
X002006Y027076D01*
X001993Y027128D01*
X001983Y027180D01*
X001977Y027233D01*
X001975Y027287D01*
M02*
