G75*
%MOIN*%
%OFA0B0*%
%FSLAX24Y24*%
%IPPOS*%
%LPD*%
%AMOC8*
5,1,8,0,0,1.08239X$1,22.5*
%
%ADD10C,0.1470*%
%ADD11C,0.1270*%
%ADD12OC8,0.0620*%
%ADD13C,0.2020*%
%ADD14C,0.0680*%
%ADD15C,0.0064*%
%ADD16C,0.0063*%
%ADD17C,0.0720*%
%ADD18C,0.1020*%
%ADD19OC8,0.1020*%
%ADD20C,0.0580*%
%ADD21C,0.0064*%
%ADD22C,0.2420*%
D10*
X002700Y002287D03*
X002700Y027287D03*
D11*
X020500Y027287D03*
X020500Y002287D03*
D12*
X006660Y004907D03*
X006660Y005997D03*
X006660Y007077D03*
X006660Y008167D03*
X006660Y009257D03*
X006660Y010337D03*
X006660Y011427D03*
X006660Y012517D03*
X006660Y013597D03*
X006660Y014687D03*
X006660Y015777D03*
X006660Y016857D03*
X006660Y017947D03*
X006660Y019037D03*
X006660Y020127D03*
X006660Y021207D03*
X006660Y022297D03*
X006660Y023387D03*
X006660Y024467D03*
X005540Y023927D03*
X005540Y022837D03*
X005540Y021757D03*
X005540Y020667D03*
X005540Y019577D03*
X005540Y018497D03*
X005540Y017407D03*
X005540Y016317D03*
X005540Y015227D03*
X005540Y014147D03*
X005540Y013057D03*
X005540Y011967D03*
X005540Y010887D03*
X005540Y009797D03*
X005540Y008707D03*
X005540Y007627D03*
X005540Y006537D03*
X005540Y005447D03*
D13*
X006100Y002187D03*
X006100Y027187D03*
D14*
X009350Y027137D03*
X009350Y026137D03*
X009350Y024737D03*
X009350Y023737D03*
X009350Y021987D03*
X009350Y020987D03*
X009350Y019487D03*
X009350Y018487D03*
X009350Y015887D03*
X009350Y014887D03*
X009350Y013887D03*
X009350Y012887D03*
X009350Y011387D03*
X009350Y010387D03*
X009350Y009387D03*
X009350Y008387D03*
X012350Y008387D03*
X012350Y009387D03*
X012350Y010387D03*
X012350Y011387D03*
X012350Y012887D03*
X012350Y013887D03*
X012350Y014887D03*
X012350Y015887D03*
X012350Y018487D03*
X012350Y019487D03*
X012350Y020987D03*
X012350Y021987D03*
X012350Y023737D03*
X012350Y024737D03*
X012350Y026137D03*
X012350Y027137D03*
D15*
X010643Y013514D02*
X010643Y013046D01*
X010057Y013046D01*
X010057Y013514D01*
X010643Y013514D01*
X010643Y013109D02*
X010057Y013109D01*
X010057Y013172D02*
X010643Y013172D01*
X010643Y013235D02*
X010057Y013235D01*
X010057Y013298D02*
X010643Y013298D01*
X010643Y013361D02*
X010057Y013361D01*
X010057Y013424D02*
X010643Y013424D01*
X010643Y013487D02*
X010057Y013487D01*
X010643Y012727D02*
X010643Y012259D01*
X010057Y012259D01*
X010057Y012727D01*
X010643Y012727D01*
X010643Y012322D02*
X010057Y012322D01*
X010057Y012385D02*
X010643Y012385D01*
X010643Y012448D02*
X010057Y012448D01*
X010057Y012511D02*
X010643Y012511D01*
X010643Y012574D02*
X010057Y012574D01*
X010057Y012637D02*
X010643Y012637D01*
X010643Y012700D02*
X010057Y012700D01*
X010643Y009114D02*
X010643Y008646D01*
X010057Y008646D01*
X010057Y009114D01*
X010643Y009114D01*
X010643Y008709D02*
X010057Y008709D01*
X010057Y008772D02*
X010643Y008772D01*
X010643Y008835D02*
X010057Y008835D01*
X010057Y008898D02*
X010643Y008898D01*
X010643Y008961D02*
X010057Y008961D01*
X010057Y009024D02*
X010643Y009024D01*
X010643Y009087D02*
X010057Y009087D01*
X010643Y008327D02*
X010643Y007859D01*
X010057Y007859D01*
X010057Y008327D01*
X010643Y008327D01*
X010643Y007922D02*
X010057Y007922D01*
X010057Y007985D02*
X010643Y007985D01*
X010643Y008048D02*
X010057Y008048D01*
X010057Y008111D02*
X010643Y008111D01*
X010643Y008174D02*
X010057Y008174D01*
X010057Y008237D02*
X010643Y008237D01*
X010643Y008300D02*
X010057Y008300D01*
D16*
X010161Y009498D02*
X010161Y009806D01*
X010539Y009806D01*
X010539Y009498D01*
X010161Y009498D01*
X010161Y009560D02*
X010539Y009560D01*
X010539Y009622D02*
X010161Y009622D01*
X010161Y009684D02*
X010539Y009684D01*
X010539Y009746D02*
X010161Y009746D01*
X010161Y010167D02*
X010161Y010475D01*
X010539Y010475D01*
X010539Y010167D01*
X010161Y010167D01*
X010161Y010229D02*
X010539Y010229D01*
X010539Y010291D02*
X010161Y010291D01*
X010161Y010353D02*
X010539Y010353D01*
X010539Y010415D02*
X010161Y010415D01*
X010161Y013898D02*
X010161Y014206D01*
X010539Y014206D01*
X010539Y013898D01*
X010161Y013898D01*
X010161Y013960D02*
X010539Y013960D01*
X010539Y014022D02*
X010161Y014022D01*
X010161Y014084D02*
X010539Y014084D01*
X010539Y014146D02*
X010161Y014146D01*
X010161Y014567D02*
X010161Y014875D01*
X010539Y014875D01*
X010539Y014567D01*
X010161Y014567D01*
X010161Y014629D02*
X010539Y014629D01*
X010539Y014691D02*
X010161Y014691D01*
X010161Y014753D02*
X010539Y014753D01*
X010539Y014815D02*
X010161Y014815D01*
X015611Y014298D02*
X015919Y014298D01*
X015611Y014298D02*
X015611Y014676D01*
X015919Y014676D01*
X015919Y014298D01*
X015919Y014360D02*
X015611Y014360D01*
X015611Y014422D02*
X015919Y014422D01*
X015919Y014484D02*
X015611Y014484D01*
X015611Y014546D02*
X015919Y014546D01*
X015919Y014608D02*
X015611Y014608D01*
X015611Y014670D02*
X015919Y014670D01*
X016281Y014298D02*
X016589Y014298D01*
X016281Y014298D02*
X016281Y014676D01*
X016589Y014676D01*
X016589Y014298D01*
X016589Y014360D02*
X016281Y014360D01*
X016281Y014422D02*
X016589Y014422D01*
X016589Y014484D02*
X016281Y014484D01*
X016281Y014546D02*
X016589Y014546D01*
X016589Y014608D02*
X016281Y014608D01*
X016281Y014670D02*
X016589Y014670D01*
X016589Y015298D02*
X016281Y015298D01*
X016281Y015676D01*
X016589Y015676D01*
X016589Y015298D01*
X016589Y015360D02*
X016281Y015360D01*
X016281Y015422D02*
X016589Y015422D01*
X016589Y015484D02*
X016281Y015484D01*
X016281Y015546D02*
X016589Y015546D01*
X016589Y015608D02*
X016281Y015608D01*
X016281Y015670D02*
X016589Y015670D01*
X016589Y016298D02*
X016281Y016298D01*
X016281Y016676D01*
X016589Y016676D01*
X016589Y016298D01*
X016589Y016360D02*
X016281Y016360D01*
X016281Y016422D02*
X016589Y016422D01*
X016589Y016484D02*
X016281Y016484D01*
X016281Y016546D02*
X016589Y016546D01*
X016589Y016608D02*
X016281Y016608D01*
X016281Y016670D02*
X016589Y016670D01*
X016589Y017298D02*
X016281Y017298D01*
X016281Y017676D01*
X016589Y017676D01*
X016589Y017298D01*
X016589Y017360D02*
X016281Y017360D01*
X016281Y017422D02*
X016589Y017422D01*
X016589Y017484D02*
X016281Y017484D01*
X016281Y017546D02*
X016589Y017546D01*
X016589Y017608D02*
X016281Y017608D01*
X016281Y017670D02*
X016589Y017670D01*
X016589Y018298D02*
X016281Y018298D01*
X016281Y018676D01*
X016589Y018676D01*
X016589Y018298D01*
X016589Y018360D02*
X016281Y018360D01*
X016281Y018422D02*
X016589Y018422D01*
X016589Y018484D02*
X016281Y018484D01*
X016281Y018546D02*
X016589Y018546D01*
X016589Y018608D02*
X016281Y018608D01*
X016281Y018670D02*
X016589Y018670D01*
X016589Y019298D02*
X016281Y019298D01*
X016281Y019676D01*
X016589Y019676D01*
X016589Y019298D01*
X016589Y019360D02*
X016281Y019360D01*
X016281Y019422D02*
X016589Y019422D01*
X016589Y019484D02*
X016281Y019484D01*
X016281Y019546D02*
X016589Y019546D01*
X016589Y019608D02*
X016281Y019608D01*
X016281Y019670D02*
X016589Y019670D01*
X016589Y020298D02*
X016281Y020298D01*
X016281Y020676D01*
X016589Y020676D01*
X016589Y020298D01*
X016589Y020360D02*
X016281Y020360D01*
X016281Y020422D02*
X016589Y020422D01*
X016589Y020484D02*
X016281Y020484D01*
X016281Y020546D02*
X016589Y020546D01*
X016589Y020608D02*
X016281Y020608D01*
X016281Y020670D02*
X016589Y020670D01*
X016589Y021298D02*
X016281Y021298D01*
X016281Y021676D01*
X016589Y021676D01*
X016589Y021298D01*
X016589Y021360D02*
X016281Y021360D01*
X016281Y021422D02*
X016589Y021422D01*
X016589Y021484D02*
X016281Y021484D01*
X016281Y021546D02*
X016589Y021546D01*
X016589Y021608D02*
X016281Y021608D01*
X016281Y021670D02*
X016589Y021670D01*
X016589Y022298D02*
X016281Y022298D01*
X016281Y022676D01*
X016589Y022676D01*
X016589Y022298D01*
X016589Y022360D02*
X016281Y022360D01*
X016281Y022422D02*
X016589Y022422D01*
X016589Y022484D02*
X016281Y022484D01*
X016281Y022546D02*
X016589Y022546D01*
X016589Y022608D02*
X016281Y022608D01*
X016281Y022670D02*
X016589Y022670D01*
X016589Y023298D02*
X016281Y023298D01*
X016281Y023676D01*
X016589Y023676D01*
X016589Y023298D01*
X016589Y023360D02*
X016281Y023360D01*
X016281Y023422D02*
X016589Y023422D01*
X016589Y023484D02*
X016281Y023484D01*
X016281Y023546D02*
X016589Y023546D01*
X016589Y023608D02*
X016281Y023608D01*
X016281Y023670D02*
X016589Y023670D01*
X016589Y024298D02*
X016281Y024298D01*
X016281Y024676D01*
X016589Y024676D01*
X016589Y024298D01*
X016589Y024360D02*
X016281Y024360D01*
X016281Y024422D02*
X016589Y024422D01*
X016589Y024484D02*
X016281Y024484D01*
X016281Y024546D02*
X016589Y024546D01*
X016589Y024608D02*
X016281Y024608D01*
X016281Y024670D02*
X016589Y024670D01*
X016589Y025298D02*
X016281Y025298D01*
X016281Y025676D01*
X016589Y025676D01*
X016589Y025298D01*
X016589Y025360D02*
X016281Y025360D01*
X016281Y025422D02*
X016589Y025422D01*
X016589Y025484D02*
X016281Y025484D01*
X016281Y025546D02*
X016589Y025546D01*
X016589Y025608D02*
X016281Y025608D01*
X016281Y025670D02*
X016589Y025670D01*
X015919Y025298D02*
X015611Y025298D01*
X015611Y025676D01*
X015919Y025676D01*
X015919Y025298D01*
X015919Y025360D02*
X015611Y025360D01*
X015611Y025422D02*
X015919Y025422D01*
X015919Y025484D02*
X015611Y025484D01*
X015611Y025546D02*
X015919Y025546D01*
X015919Y025608D02*
X015611Y025608D01*
X015611Y025670D02*
X015919Y025670D01*
X015919Y024298D02*
X015611Y024298D01*
X015611Y024676D01*
X015919Y024676D01*
X015919Y024298D01*
X015919Y024360D02*
X015611Y024360D01*
X015611Y024422D02*
X015919Y024422D01*
X015919Y024484D02*
X015611Y024484D01*
X015611Y024546D02*
X015919Y024546D01*
X015919Y024608D02*
X015611Y024608D01*
X015611Y024670D02*
X015919Y024670D01*
X015919Y023298D02*
X015611Y023298D01*
X015611Y023676D01*
X015919Y023676D01*
X015919Y023298D01*
X015919Y023360D02*
X015611Y023360D01*
X015611Y023422D02*
X015919Y023422D01*
X015919Y023484D02*
X015611Y023484D01*
X015611Y023546D02*
X015919Y023546D01*
X015919Y023608D02*
X015611Y023608D01*
X015611Y023670D02*
X015919Y023670D01*
X015919Y022298D02*
X015611Y022298D01*
X015611Y022676D01*
X015919Y022676D01*
X015919Y022298D01*
X015919Y022360D02*
X015611Y022360D01*
X015611Y022422D02*
X015919Y022422D01*
X015919Y022484D02*
X015611Y022484D01*
X015611Y022546D02*
X015919Y022546D01*
X015919Y022608D02*
X015611Y022608D01*
X015611Y022670D02*
X015919Y022670D01*
X015919Y021298D02*
X015611Y021298D01*
X015611Y021676D01*
X015919Y021676D01*
X015919Y021298D01*
X015919Y021360D02*
X015611Y021360D01*
X015611Y021422D02*
X015919Y021422D01*
X015919Y021484D02*
X015611Y021484D01*
X015611Y021546D02*
X015919Y021546D01*
X015919Y021608D02*
X015611Y021608D01*
X015611Y021670D02*
X015919Y021670D01*
X015919Y020298D02*
X015611Y020298D01*
X015611Y020676D01*
X015919Y020676D01*
X015919Y020298D01*
X015919Y020360D02*
X015611Y020360D01*
X015611Y020422D02*
X015919Y020422D01*
X015919Y020484D02*
X015611Y020484D01*
X015611Y020546D02*
X015919Y020546D01*
X015919Y020608D02*
X015611Y020608D01*
X015611Y020670D02*
X015919Y020670D01*
X015919Y019298D02*
X015611Y019298D01*
X015611Y019676D01*
X015919Y019676D01*
X015919Y019298D01*
X015919Y019360D02*
X015611Y019360D01*
X015611Y019422D02*
X015919Y019422D01*
X015919Y019484D02*
X015611Y019484D01*
X015611Y019546D02*
X015919Y019546D01*
X015919Y019608D02*
X015611Y019608D01*
X015611Y019670D02*
X015919Y019670D01*
X015919Y018298D02*
X015611Y018298D01*
X015611Y018676D01*
X015919Y018676D01*
X015919Y018298D01*
X015919Y018360D02*
X015611Y018360D01*
X015611Y018422D02*
X015919Y018422D01*
X015919Y018484D02*
X015611Y018484D01*
X015611Y018546D02*
X015919Y018546D01*
X015919Y018608D02*
X015611Y018608D01*
X015611Y018670D02*
X015919Y018670D01*
X015919Y017298D02*
X015611Y017298D01*
X015611Y017676D01*
X015919Y017676D01*
X015919Y017298D01*
X015919Y017360D02*
X015611Y017360D01*
X015611Y017422D02*
X015919Y017422D01*
X015919Y017484D02*
X015611Y017484D01*
X015611Y017546D02*
X015919Y017546D01*
X015919Y017608D02*
X015611Y017608D01*
X015611Y017670D02*
X015919Y017670D01*
X015919Y016298D02*
X015611Y016298D01*
X015611Y016676D01*
X015919Y016676D01*
X015919Y016298D01*
X015919Y016360D02*
X015611Y016360D01*
X015611Y016422D02*
X015919Y016422D01*
X015919Y016484D02*
X015611Y016484D01*
X015611Y016546D02*
X015919Y016546D01*
X015919Y016608D02*
X015611Y016608D01*
X015611Y016670D02*
X015919Y016670D01*
X015919Y015298D02*
X015611Y015298D01*
X015611Y015676D01*
X015919Y015676D01*
X015919Y015298D01*
X015919Y015360D02*
X015611Y015360D01*
X015611Y015422D02*
X015919Y015422D01*
X015919Y015484D02*
X015611Y015484D01*
X015611Y015546D02*
X015919Y015546D01*
X015919Y015608D02*
X015611Y015608D01*
X015611Y015670D02*
X015919Y015670D01*
X015919Y013298D02*
X015611Y013298D01*
X015611Y013676D01*
X015919Y013676D01*
X015919Y013298D01*
X015919Y013360D02*
X015611Y013360D01*
X015611Y013422D02*
X015919Y013422D01*
X015919Y013484D02*
X015611Y013484D01*
X015611Y013546D02*
X015919Y013546D01*
X015919Y013608D02*
X015611Y013608D01*
X015611Y013670D02*
X015919Y013670D01*
X016281Y013298D02*
X016589Y013298D01*
X016281Y013298D02*
X016281Y013676D01*
X016589Y013676D01*
X016589Y013298D01*
X016589Y013360D02*
X016281Y013360D01*
X016281Y013422D02*
X016589Y013422D01*
X016589Y013484D02*
X016281Y013484D01*
X016281Y013546D02*
X016589Y013546D01*
X016589Y013608D02*
X016281Y013608D01*
X016281Y013670D02*
X016589Y013670D01*
X018811Y013676D02*
X019119Y013676D01*
X019119Y013298D01*
X018811Y013298D01*
X018811Y013676D01*
X018811Y013360D02*
X019119Y013360D01*
X019119Y013422D02*
X018811Y013422D01*
X018811Y013484D02*
X019119Y013484D01*
X019119Y013546D02*
X018811Y013546D01*
X018811Y013608D02*
X019119Y013608D01*
X019119Y013670D02*
X018811Y013670D01*
X018811Y014676D02*
X019119Y014676D01*
X019119Y014298D01*
X018811Y014298D01*
X018811Y014676D01*
X018811Y014360D02*
X019119Y014360D01*
X019119Y014422D02*
X018811Y014422D01*
X018811Y014484D02*
X019119Y014484D01*
X019119Y014546D02*
X018811Y014546D01*
X018811Y014608D02*
X019119Y014608D01*
X019119Y014670D02*
X018811Y014670D01*
X018811Y015676D02*
X019119Y015676D01*
X019119Y015298D01*
X018811Y015298D01*
X018811Y015676D01*
X018811Y015360D02*
X019119Y015360D01*
X019119Y015422D02*
X018811Y015422D01*
X018811Y015484D02*
X019119Y015484D01*
X019119Y015546D02*
X018811Y015546D01*
X018811Y015608D02*
X019119Y015608D01*
X019119Y015670D02*
X018811Y015670D01*
X018811Y016676D02*
X019119Y016676D01*
X019119Y016298D01*
X018811Y016298D01*
X018811Y016676D01*
X018811Y016360D02*
X019119Y016360D01*
X019119Y016422D02*
X018811Y016422D01*
X018811Y016484D02*
X019119Y016484D01*
X019119Y016546D02*
X018811Y016546D01*
X018811Y016608D02*
X019119Y016608D01*
X019119Y016670D02*
X018811Y016670D01*
X018811Y017676D02*
X019119Y017676D01*
X019119Y017298D01*
X018811Y017298D01*
X018811Y017676D01*
X018811Y017360D02*
X019119Y017360D01*
X019119Y017422D02*
X018811Y017422D01*
X018811Y017484D02*
X019119Y017484D01*
X019119Y017546D02*
X018811Y017546D01*
X018811Y017608D02*
X019119Y017608D01*
X019119Y017670D02*
X018811Y017670D01*
X018811Y018676D02*
X019119Y018676D01*
X019119Y018298D01*
X018811Y018298D01*
X018811Y018676D01*
X018811Y018360D02*
X019119Y018360D01*
X019119Y018422D02*
X018811Y018422D01*
X018811Y018484D02*
X019119Y018484D01*
X019119Y018546D02*
X018811Y018546D01*
X018811Y018608D02*
X019119Y018608D01*
X019119Y018670D02*
X018811Y018670D01*
X018811Y019676D02*
X019119Y019676D01*
X019119Y019298D01*
X018811Y019298D01*
X018811Y019676D01*
X018811Y019360D02*
X019119Y019360D01*
X019119Y019422D02*
X018811Y019422D01*
X018811Y019484D02*
X019119Y019484D01*
X019119Y019546D02*
X018811Y019546D01*
X018811Y019608D02*
X019119Y019608D01*
X019119Y019670D02*
X018811Y019670D01*
X018811Y020676D02*
X019119Y020676D01*
X019119Y020298D01*
X018811Y020298D01*
X018811Y020676D01*
X018811Y020360D02*
X019119Y020360D01*
X019119Y020422D02*
X018811Y020422D01*
X018811Y020484D02*
X019119Y020484D01*
X019119Y020546D02*
X018811Y020546D01*
X018811Y020608D02*
X019119Y020608D01*
X019119Y020670D02*
X018811Y020670D01*
X018811Y021676D02*
X019119Y021676D01*
X019119Y021298D01*
X018811Y021298D01*
X018811Y021676D01*
X018811Y021360D02*
X019119Y021360D01*
X019119Y021422D02*
X018811Y021422D01*
X018811Y021484D02*
X019119Y021484D01*
X019119Y021546D02*
X018811Y021546D01*
X018811Y021608D02*
X019119Y021608D01*
X019119Y021670D02*
X018811Y021670D01*
X018811Y022676D02*
X019119Y022676D01*
X019119Y022298D01*
X018811Y022298D01*
X018811Y022676D01*
X018811Y022360D02*
X019119Y022360D01*
X019119Y022422D02*
X018811Y022422D01*
X018811Y022484D02*
X019119Y022484D01*
X019119Y022546D02*
X018811Y022546D01*
X018811Y022608D02*
X019119Y022608D01*
X019119Y022670D02*
X018811Y022670D01*
X018811Y023676D02*
X019119Y023676D01*
X019119Y023298D01*
X018811Y023298D01*
X018811Y023676D01*
X018811Y023360D02*
X019119Y023360D01*
X019119Y023422D02*
X018811Y023422D01*
X018811Y023484D02*
X019119Y023484D01*
X019119Y023546D02*
X018811Y023546D01*
X018811Y023608D02*
X019119Y023608D01*
X019119Y023670D02*
X018811Y023670D01*
X019481Y023676D02*
X019789Y023676D01*
X019789Y023298D01*
X019481Y023298D01*
X019481Y023676D01*
X019481Y023360D02*
X019789Y023360D01*
X019789Y023422D02*
X019481Y023422D01*
X019481Y023484D02*
X019789Y023484D01*
X019789Y023546D02*
X019481Y023546D01*
X019481Y023608D02*
X019789Y023608D01*
X019789Y023670D02*
X019481Y023670D01*
X019481Y022676D02*
X019789Y022676D01*
X019789Y022298D01*
X019481Y022298D01*
X019481Y022676D01*
X019481Y022360D02*
X019789Y022360D01*
X019789Y022422D02*
X019481Y022422D01*
X019481Y022484D02*
X019789Y022484D01*
X019789Y022546D02*
X019481Y022546D01*
X019481Y022608D02*
X019789Y022608D01*
X019789Y022670D02*
X019481Y022670D01*
X019481Y021676D02*
X019789Y021676D01*
X019789Y021298D01*
X019481Y021298D01*
X019481Y021676D01*
X019481Y021360D02*
X019789Y021360D01*
X019789Y021422D02*
X019481Y021422D01*
X019481Y021484D02*
X019789Y021484D01*
X019789Y021546D02*
X019481Y021546D01*
X019481Y021608D02*
X019789Y021608D01*
X019789Y021670D02*
X019481Y021670D01*
X019481Y020676D02*
X019789Y020676D01*
X019789Y020298D01*
X019481Y020298D01*
X019481Y020676D01*
X019481Y020360D02*
X019789Y020360D01*
X019789Y020422D02*
X019481Y020422D01*
X019481Y020484D02*
X019789Y020484D01*
X019789Y020546D02*
X019481Y020546D01*
X019481Y020608D02*
X019789Y020608D01*
X019789Y020670D02*
X019481Y020670D01*
X019481Y019676D02*
X019789Y019676D01*
X019789Y019298D01*
X019481Y019298D01*
X019481Y019676D01*
X019481Y019360D02*
X019789Y019360D01*
X019789Y019422D02*
X019481Y019422D01*
X019481Y019484D02*
X019789Y019484D01*
X019789Y019546D02*
X019481Y019546D01*
X019481Y019608D02*
X019789Y019608D01*
X019789Y019670D02*
X019481Y019670D01*
X019481Y018676D02*
X019789Y018676D01*
X019789Y018298D01*
X019481Y018298D01*
X019481Y018676D01*
X019481Y018360D02*
X019789Y018360D01*
X019789Y018422D02*
X019481Y018422D01*
X019481Y018484D02*
X019789Y018484D01*
X019789Y018546D02*
X019481Y018546D01*
X019481Y018608D02*
X019789Y018608D01*
X019789Y018670D02*
X019481Y018670D01*
X019481Y017676D02*
X019789Y017676D01*
X019789Y017298D01*
X019481Y017298D01*
X019481Y017676D01*
X019481Y017360D02*
X019789Y017360D01*
X019789Y017422D02*
X019481Y017422D01*
X019481Y017484D02*
X019789Y017484D01*
X019789Y017546D02*
X019481Y017546D01*
X019481Y017608D02*
X019789Y017608D01*
X019789Y017670D02*
X019481Y017670D01*
X019481Y016676D02*
X019789Y016676D01*
X019789Y016298D01*
X019481Y016298D01*
X019481Y016676D01*
X019481Y016360D02*
X019789Y016360D01*
X019789Y016422D02*
X019481Y016422D01*
X019481Y016484D02*
X019789Y016484D01*
X019789Y016546D02*
X019481Y016546D01*
X019481Y016608D02*
X019789Y016608D01*
X019789Y016670D02*
X019481Y016670D01*
X019481Y015676D02*
X019789Y015676D01*
X019789Y015298D01*
X019481Y015298D01*
X019481Y015676D01*
X019481Y015360D02*
X019789Y015360D01*
X019789Y015422D02*
X019481Y015422D01*
X019481Y015484D02*
X019789Y015484D01*
X019789Y015546D02*
X019481Y015546D01*
X019481Y015608D02*
X019789Y015608D01*
X019789Y015670D02*
X019481Y015670D01*
X019481Y014676D02*
X019789Y014676D01*
X019789Y014298D01*
X019481Y014298D01*
X019481Y014676D01*
X019481Y014360D02*
X019789Y014360D01*
X019789Y014422D02*
X019481Y014422D01*
X019481Y014484D02*
X019789Y014484D01*
X019789Y014546D02*
X019481Y014546D01*
X019481Y014608D02*
X019789Y014608D01*
X019789Y014670D02*
X019481Y014670D01*
X019481Y013676D02*
X019789Y013676D01*
X019789Y013298D01*
X019481Y013298D01*
X019481Y013676D01*
X019481Y013360D02*
X019789Y013360D01*
X019789Y013422D02*
X019481Y013422D01*
X019481Y013484D02*
X019789Y013484D01*
X019789Y013546D02*
X019481Y013546D01*
X019481Y013608D02*
X019789Y013608D01*
X019789Y013670D02*
X019481Y013670D01*
X011339Y027376D02*
X011031Y027376D01*
X011339Y027376D02*
X011339Y026998D01*
X011031Y026998D01*
X011031Y027376D01*
X011031Y027060D02*
X011339Y027060D01*
X011339Y027122D02*
X011031Y027122D01*
X011031Y027184D02*
X011339Y027184D01*
X011339Y027246D02*
X011031Y027246D01*
X011031Y027308D02*
X011339Y027308D01*
X011339Y027370D02*
X011031Y027370D01*
X010669Y027376D02*
X010361Y027376D01*
X010669Y027376D02*
X010669Y026998D01*
X010361Y026998D01*
X010361Y027376D01*
X010361Y027060D02*
X010669Y027060D01*
X010669Y027122D02*
X010361Y027122D01*
X010361Y027184D02*
X010669Y027184D01*
X010669Y027246D02*
X010361Y027246D01*
X010361Y027308D02*
X010669Y027308D01*
X010669Y027370D02*
X010361Y027370D01*
D17*
X013400Y027887D03*
X014400Y027887D03*
X015250Y026587D03*
X016250Y026587D03*
X017250Y026587D03*
X017200Y025487D03*
X018200Y025487D03*
X018200Y024487D03*
X018200Y023487D03*
X018200Y022487D03*
X017200Y022487D03*
X017200Y023487D03*
X017200Y024487D03*
X017200Y021487D03*
X017200Y020487D03*
X017200Y019487D03*
X018200Y019487D03*
X018200Y020487D03*
X018200Y021487D03*
X018200Y018487D03*
X018200Y017487D03*
X018200Y016487D03*
X017200Y016487D03*
X017200Y017487D03*
X017200Y018487D03*
X017200Y015487D03*
X017200Y014487D03*
X017200Y013487D03*
X018200Y013487D03*
X018200Y014487D03*
X018200Y015487D03*
X013600Y021237D03*
X013600Y022237D03*
X002100Y021887D03*
X002100Y022887D03*
X002100Y023887D03*
X002100Y024887D03*
X002100Y020387D03*
X002100Y019387D03*
X002100Y018387D03*
X002100Y016887D03*
X002100Y015887D03*
X002100Y014887D03*
X002100Y013887D03*
X002100Y012887D03*
X002100Y011887D03*
X002100Y010887D03*
X002100Y009887D03*
X002100Y008887D03*
X002100Y007887D03*
X002100Y006637D03*
X002100Y005637D03*
X002100Y004637D03*
X009100Y001487D03*
X010100Y001487D03*
X011100Y001487D03*
X012100Y001487D03*
X013100Y001487D03*
X014100Y001487D03*
X015100Y001487D03*
X016100Y001487D03*
X017100Y001487D03*
X018100Y001487D03*
X009400Y004837D03*
X009400Y005837D03*
X009400Y006837D03*
D18*
X017800Y004087D03*
D19*
X017800Y006087D03*
D20*
X020600Y006387D03*
X020600Y007387D03*
X020600Y008387D03*
X020600Y009387D03*
X020600Y010387D03*
X013600Y009387D03*
X013600Y008387D03*
X013400Y004337D03*
X012900Y003337D03*
X012400Y004337D03*
X011900Y003337D03*
X011400Y004337D03*
D21*
X020788Y004885D02*
X020788Y005249D01*
X020788Y004885D02*
X020412Y004885D01*
X020412Y005249D01*
X020788Y005249D01*
X020788Y004948D02*
X020412Y004948D01*
X020412Y005011D02*
X020788Y005011D01*
X020788Y005074D02*
X020412Y005074D01*
X020412Y005137D02*
X020788Y005137D01*
X020788Y005200D02*
X020412Y005200D01*
X020788Y005524D02*
X020788Y005888D01*
X020788Y005524D02*
X020412Y005524D01*
X020412Y005888D01*
X020788Y005888D01*
X020788Y005587D02*
X020412Y005587D01*
X020412Y005650D02*
X020788Y005650D01*
X020788Y005713D02*
X020412Y005713D01*
X020412Y005776D02*
X020788Y005776D01*
X020788Y005839D02*
X020412Y005839D01*
X014001Y023925D02*
X013637Y023925D01*
X014001Y023925D02*
X014001Y023549D01*
X013637Y023549D01*
X013637Y023925D01*
X013637Y023612D02*
X014001Y023612D01*
X014001Y023675D02*
X013637Y023675D01*
X013637Y023738D02*
X014001Y023738D01*
X014001Y023801D02*
X013637Y023801D01*
X013637Y023864D02*
X014001Y023864D01*
X013363Y023925D02*
X012999Y023925D01*
X013363Y023925D02*
X013363Y023549D01*
X012999Y023549D01*
X012999Y023925D01*
X012999Y023612D02*
X013363Y023612D01*
X013363Y023675D02*
X012999Y023675D01*
X012999Y023738D02*
X013363Y023738D01*
X013363Y023801D02*
X012999Y023801D01*
X012999Y023864D02*
X013363Y023864D01*
D22*
X017251Y010502D03*
M02*
